<?xml version="1.0" standalone="no"?>
<!DOCTYPE svg PUBLIC "-//W3C//DTD SVG 20010904//EN"
 "http://www.w3.org/TR/2001/REC-SVG-20010904/DTD/svg10.dtd">
<svg version="1.0" xmlns="http://www.w3.org/2000/svg"
 width="1100.000000pt" height="1100.000000pt" viewBox="0 0 1100.000000 1100.000000"
 preserveAspectRatio="xMidYMid meet">
<metadata>
Created by potrace 1.14, written by Peter Selinger 2001-2017
</metadata>
<g transform="translate(0.000000,1100.000000) scale(0.100000,-0.100000)"
fill="#000000" stroke="none">
<path d="M5177 9263 c-6 -6 -72 -12 -174 -16 -13 -1 -23 -4 -23 -7 0 -3 -24
-5 -52 -6 -36 0 -52 -4 -50 -12 2 -14 -20 -12 -30 3 -5 7 -11 7 -15 0 -5 -6
-28 -11 -53 -13 -24 -1 -47 -6 -50 -10 -9 -13 -40 -13 -40 0 -1 7 -8 2 -16
-12 -8 -14 -13 -17 -10 -7 3 9 1 17 -4 17 -6 0 -10 -4 -10 -10 0 -5 -7 -6 -17
-3 -10 4 -14 3 -9 -5 4 -7 -5 -10 -29 -8 -19 2 -35 0 -35 -6 0 -5 -4 -6 -10
-3 -5 3 -10 2 -10 -3 0 -5 -12 -8 -27 -6 -16 1 -40 -3 -56 -11 -15 -7 -25 -10
-22 -5 3 5 -8 3 -24 -3 -17 -6 -28 -14 -25 -18 2 -4 -6 -5 -18 -1 -13 3 -19 1
-15 -5 4 -6 -3 -8 -18 -5 -14 2 -25 0 -25 -6 0 -6 -9 -9 -20 -7 -11 2 -20 -1
-20 -6 0 -6 -5 -7 -10 -4 -6 4 -18 1 -26 -6 -8 -6 -17 -9 -20 -6 -3 3 -17 -1
-31 -8 -15 -8 -30 -12 -35 -9 -4 3 -8 -3 -8 -13 0 -13 -2 -15 -9 -5 -6 10 -13
11 -34 1 -15 -7 -24 -15 -22 -20 3 -4 -4 -5 -15 -2 -14 4 -30 -3 -47 -18 -14
-13 -23 -18 -19 -11 4 6 2 12 -3 12 -6 0 -11 -4 -11 -10 0 -5 -3 -9 -7 -8 -15
4 -53 -14 -48 -22 3 -5 0 -12 -6 -16 -7 -4 -9 -3 -5 4 3 6 2 13 -4 17 -6 3
-13 -1 -16 -9 -3 -9 -10 -16 -16 -16 -5 0 -6 6 -2 13 4 6 -8 -1 -26 -18 -18
-16 -29 -23 -25 -15 7 12 6 13 -7 3 -8 -7 -18 -10 -21 -6 -4 3 -7 1 -7 -5 0
-7 -3 -11 -7 -11 -21 3 -26 -2 -13 -12 12 -8 10 -9 -8 -4 -13 4 -29 1 -37 -5
-8 -6 -19 -9 -25 -5 -6 4 -9 1 -8 -7 2 -7 -3 -12 -11 -10 -9 2 -11 -3 -7 -15
6 -14 5 -15 -5 -6 -10 10 -15 9 -26 -5 -8 -9 -11 -11 -8 -4 6 11 3 12 -14 3
-11 -7 -21 -16 -21 -21 0 -5 -7 -7 -15 -4 -8 4 -15 1 -15 -6 0 -6 -4 -8 -10
-5 -5 3 -10 1 -10 -5 0 -6 -4 -8 -10 -5 -5 3 -10 1 -10 -4 0 -6 -7 -11 -16
-11 -11 0 -14 -5 -10 -16 6 -15 4 -15 -11 -3 -14 12 -16 12 -11 -2 4 -11 -1
-15 -20 -15 -14 1 -27 -5 -30 -13 -3 -9 0 -11 8 -6 8 5 11 4 6 -3 -4 -6 -13
-9 -22 -5 -8 3 -24 -3 -36 -13 -12 -11 -18 -13 -13 -5 6 10 4 12 -4 7 -7 -5
-10 -15 -6 -23 4 -13 3 -13 -9 -4 -11 9 -15 8 -20 -4 -3 -9 -10 -13 -16 -10
-5 3 -10 1 -10 -4 0 -6 -7 -11 -16 -11 -10 0 -14 -6 -11 -14 4 -11 -1 -13 -18
-10 -20 3 -23 1 -18 -12 4 -12 2 -15 -8 -12 -8 3 -22 -4 -31 -14 -9 -11 -19
-19 -22 -19 -20 3 -27 0 -22 -8 3 -5 -5 -12 -19 -15 -14 -4 -24 -12 -22 -19 1
-6 -4 -11 -11 -9 -7 1 -26 -12 -42 -28 -17 -17 -30 -27 -30 -23 0 4 -10 -3
-21 -17 -11 -14 -18 -18 -14 -10 4 8 -1 6 -10 -5 -9 -11 -21 -19 -26 -17 -5 1
-9 -5 -9 -13 0 -8 -3 -14 -7 -13 -5 1 -18 -4 -30 -12 -17 -11 -19 -17 -11 -27
8 -11 7 -12 -7 -7 -12 5 -24 -1 -37 -17 -11 -13 -16 -17 -12 -9 7 13 5 13 -9
2 -9 -8 -15 -17 -14 -20 1 -4 -1 -8 -6 -9 -18 -6 -49 -42 -43 -52 4 -5 1 -13
-5 -17 -7 -4 -9 -3 -5 4 3 6 2 13 -4 17 -5 3 -10 -1 -10 -10 0 -9 -4 -13 -10
-10 -9 6 -14 -7 -11 -27 0 -4 -7 -4 -16 -1 -11 4 -14 3 -9 -5 4 -7 1 -12 -7
-12 -8 0 -21 -8 -28 -17 -13 -17 -13 -17 6 -3 19 14 19 14 6 -3 -8 -10 -20
-16 -28 -13 -8 3 -12 2 -9 -3 3 -4 -8 -18 -25 -30 -19 -14 -28 -28 -25 -38 4
-9 1 -13 -6 -10 -7 2 -22 -9 -34 -24 -11 -16 -24 -26 -27 -22 -4 3 -7 -4 -7
-16 0 -12 -4 -20 -9 -16 -5 3 -12 -4 -16 -15 -4 -11 -11 -17 -17 -14 -7 5 -9
1 -5 -9 4 -10 2 -16 -6 -14 -7 1 -11 -6 -11 -15 1 -10 -1 -17 -5 -16 -14 3
-41 -15 -35 -23 3 -5 0 -9 -6 -9 -6 0 -8 -4 -5 -10 3 -5 1 -10 -5 -10 -15 0
-40 -25 -40 -40 0 -6 -5 -8 -12 -4 -7 4 -8 3 -4 -5 4 -6 0 -14 -8 -17 -9 -3
-14 -9 -12 -13 3 -4 -9 -17 -25 -30 -29 -23 -29 -24 -12 -45 11 -13 12 -16 3
-10 -12 9 -20 6 -40 -14 -14 -14 -18 -21 -10 -16 9 5 8 1 -3 -8 -10 -10 -15
-23 -11 -29 4 -7 3 -9 -3 -6 -6 4 -19 -5 -28 -20 -16 -23 -16 -25 -1 -20 9 4
16 4 16 1 0 -3 -13 -10 -30 -15 -16 -6 -27 -15 -24 -20 3 -5 10 -6 16 -3 7 4
8 2 4 -5 -4 -6 -12 -8 -18 -5 -7 5 -9 2 -5 -8 3 -10 0 -15 -11 -14 -13 1 -17
-7 -15 -34 1 -25 0 -30 -6 -16 -5 14 -10 16 -15 8 -4 -7 -4 -18 0 -24 4 -7 4
-10 -1 -6 -4 4 -14 0 -22 -8 -14 -13 -13 -17 3 -30 11 -9 14 -13 7 -10 -17 9
-45 -5 -39 -20 3 -7 0 -16 -6 -20 -7 -4 -8 -3 -4 4 4 7 5 12 2 12 -4 0 -13
-18 -22 -40 -9 -22 -20 -40 -26 -40 -5 0 -7 -4 -4 -8 3 -5 -3 -18 -14 -29 -10
-12 -16 -24 -12 -27 3 -4 0 -11 -8 -17 -13 -8 -13 -10 0 -19 12 -9 12 -10 -5
-8 -11 2 -20 -1 -20 -7 -1 -5 -13 -34 -27 -63 -15 -28 -21 -49 -15 -46 7 3 3
-2 -7 -10 -11 -9 -16 -16 -12 -16 5 0 4 -6 -3 -13 -8 -10 -7 -17 2 -26 9 -10
8 -11 -7 -5 -15 6 -18 4 -13 -8 3 -10 0 -19 -10 -22 -8 -4 -13 -13 -10 -20 3
-8 1 -17 -6 -19 -9 -3 -8 -10 2 -28 13 -22 13 -23 -2 -11 -13 11 -16 10 -21
-5 -3 -10 -5 -22 -5 -27 0 -5 -5 -13 -13 -17 -10 -7 -10 -9 2 -9 13 0 13 -1 0
-10 -13 -9 -13 -11 0 -20 12 -9 12 -10 -5 -8 -16 2 -19 -2 -18 -20 2 -13 -1
-21 -6 -18 -5 3 -12 -1 -15 -10 -4 -9 -2 -13 5 -8 6 3 3 -6 -7 -22 -15 -21
-15 -26 -4 -20 8 4 6 0 -4 -8 -11 -9 -17 -16 -13 -16 4 0 1 -16 -7 -35 -8 -19
-12 -35 -9 -35 3 0 0 -7 -7 -15 -7 -8 -9 -15 -5 -15 4 0 3 -6 -2 -12 -16 -21
-23 -59 -10 -51 7 3 3 -3 -7 -15 -12 -14 -14 -22 -7 -22 8 0 7 -5 -3 -16 -9
-8 -14 -20 -11 -25 4 -5 0 -9 -7 -10 -7 0 -4 -4 7 -9 18 -8 18 -9 2 -9 -10 -1
-15 -6 -12 -11 4 -6 11 -7 17 -4 7 4 8 2 4 -5 -4 -6 -12 -9 -17 -6 -9 6 -13
-8 -10 -34 2 -7 -2 -10 -9 -6 -9 6 -9 2 0 -15 7 -12 8 -20 2 -16 -5 3 -13 -11
-16 -32 -4 -20 -10 -45 -13 -56 -4 -13 -1 -17 8 -12 8 4 7 1 -3 -6 -12 -11
-14 -18 -6 -32 7 -13 7 -17 0 -12 -5 3 -13 -1 -16 -10 -4 -10 -2 -13 7 -8 8 5
7 2 -2 -9 -10 -12 -10 -17 -2 -17 9 0 8 -4 -2 -14 -8 -9 -13 -32 -12 -59 0
-25 -2 -44 -6 -41 -4 2 -9 -12 -11 -31 -2 -19 0 -35 4 -35 4 0 8 5 8 12 0 6 2
9 5 6 9 -8 -6 -38 -16 -32 -5 3 -9 -2 -9 -10 0 -9 6 -16 13 -16 9 0 9 -3 -1
-9 -18 -11 -26 -85 -9 -74 9 5 9 3 0 -8 -10 -12 -10 -18 0 -28 9 -10 8 -11 -8
-5 -17 7 -18 5 -8 -8 7 -8 10 -18 6 -21 -12 -13 -10 -92 3 -107 9 -11 10 -20
3 -30 -8 -13 -9 -12 -7 2 2 9 -1 16 -7 15 -5 -1 -9 -6 -7 -12 6 -17 5 -39 -3
-57 -4 -11 -3 -18 4 -18 6 0 11 5 11 12 0 6 3 8 7 5 3 -4 -2 -17 -13 -29 -10
-12 -13 -18 -5 -13 11 6 13 4 7 -11 -9 -22 -11 -88 -3 -121 3 -13 1 -23 -5
-23 -7 0 -6 -5 1 -14 8 -10 9 -16 1 -21 -13 -8 -13 -25 1 -25 5 0 7 4 4 10 -3
6 1 7 10 3 13 -4 14 -8 4 -14 -7 -4 -14 -17 -16 -29 -2 -12 0 -19 4 -17 5 3 8
-26 7 -64 0 -44 3 -69 10 -69 6 0 4 -5 -4 -10 -12 -8 -12 -10 -1 -10 10 0 11
-3 2 -14 -10 -11 -8 -17 6 -25 10 -6 13 -11 5 -11 -10 0 -10 -5 -1 -21 8 -15
8 -19 0 -15 -6 4 -11 2 -11 -3 0 -6 4 -11 10 -11 5 0 6 -7 3 -17 -5 -12 -3
-14 8 -8 12 8 12 6 0 -9 -9 -11 -11 -20 -5 -24 5 -4 10 -18 11 -32 4 -78 9
-110 16 -110 5 0 7 -9 4 -20 -3 -11 -1 -20 4 -20 5 0 9 -5 9 -11 0 -5 -5 -7
-11 -3 -6 3 -3 -8 5 -25 12 -21 13 -31 5 -31 -7 0 -2 -9 10 -19 14 -12 18 -20
10 -23 -8 -3 -9 -9 -4 -18 5 -8 10 -30 12 -48 3 -42 21 -74 36 -67 7 4 4 0 -6
-8 -14 -12 -15 -16 -4 -26 8 -6 18 -7 23 -3 4 4 3 0 -3 -8 -11 -15 -7 -70 6
-70 4 0 8 -14 9 -32 2 -17 7 -37 12 -43 5 -6 10 -23 12 -38 2 -15 12 -36 21
-47 11 -14 13 -20 4 -20 -8 0 -7 -4 3 -10 8 -5 11 -10 6 -10 -5 0 -3 -6 3 -13
6 -8 8 -17 4 -20 -3 -4 -2 -7 4 -7 5 0 10 -7 11 -15 1 -8 3 -22 4 -30 1 -8 8
-15 17 -15 14 0 14 -2 1 -10 -12 -8 -12 -10 -1 -10 8 0 11 -3 8 -6 -3 -4 -1
-16 5 -28 7 -11 12 -24 13 -28 0 -3 3 -10 8 -14 4 -4 7 -16 7 -26 0 -11 5 -16
10 -13 6 3 10 -5 10 -19 0 -14 4 -27 9 -31 5 -3 12 -19 16 -35 4 -17 11 -30
16 -30 6 0 8 4 4 9 -3 5 -1 12 4 15 11 7 9 -13 -2 -31 -5 -7 -4 -13 2 -13 5 0
12 -13 16 -29 3 -16 13 -32 22 -35 9 -4 13 -14 10 -26 -3 -14 3 -26 20 -40 14
-11 22 -20 18 -20 -4 0 -1 -8 6 -17 12 -14 12 -16 -1 -9 -9 4 -8 2 2 -7 10 -8
15 -17 11 -20 -12 -13 13 -7 27 6 12 10 12 9 2 -4 -18 -24 1 -71 25 -63 14 5
15 4 4 -4 -12 -9 -12 -13 2 -27 10 -9 15 -20 13 -24 -3 -4 4 -13 14 -21 10 -8
17 -17 14 -22 -3 -4 0 -8 6 -8 6 0 8 -4 5 -10 -3 -5 -1 -10 4 -10 6 0 11 -6
11 -14 0 -8 5 -16 11 -18 5 -2 11 -11 13 -20 1 -10 6 -21 11 -25 4 -4 5 -2 0
6 -5 9 -4 12 3 7 7 -4 12 -12 12 -18 0 -6 8 -17 17 -25 10 -8 12 -11 4 -8 -9
5 -8 -1 4 -19 10 -14 22 -26 27 -26 5 0 6 -5 3 -10 -3 -5 -2 -10 4 -10 5 0 11
3 14 8 2 4 2 1 1 -6 -5 -20 7 -42 24 -42 8 0 12 -3 9 -6 -12 -12 14 -46 30
-40 14 6 14 4 2 -11 -8 -9 -9 -14 -4 -11 6 3 16 0 23 -8 7 -8 10 -14 7 -14 -3
0 -1 -6 4 -12 51 -64 74 -87 82 -82 5 3 6 -3 2 -12 -5 -13 -3 -16 10 -11 9 3
19 1 23 -5 4 -7 3 -8 -4 -4 -23 14 -12 -13 13 -32 13 -11 21 -22 18 -26 -6 -6
12 -10 30 -7 5 1 6 -3 3 -7 -7 -12 29 -54 38 -45 4 4 4 0 0 -10 -3 -9 -2 -17
3 -17 5 0 20 -10 33 -23 14 -12 28 -21 32 -19 5 1 7 -4 6 -10 -2 -7 2 -12 9
-11 7 2 10 -3 7 -11 -3 -8 0 -17 7 -22 8 -4 10 -3 5 4 -4 7 -2 12 3 12 6 0 11
-7 11 -15 0 -8 5 -15 11 -15 5 0 7 -4 4 -10 -4 -6 1 -7 12 -3 10 3 15 3 11 -1
-4 -5 3 -18 15 -31 16 -16 26 -20 35 -12 9 7 11 5 6 -8 -5 -13 -4 -16 5 -11 6
4 11 4 10 -1 -4 -25 1 -35 14 -24 16 13 28 5 20 -15 -3 -8 0 -14 7 -14 6 0 8
-6 4 -12 -4 -7 6 -2 22 12 20 17 24 19 12 4 -17 -20 -17 -21 19 -55 21 -19 31
-25 23 -13 -8 11 -3 7 11 -8 14 -15 31 -28 38 -28 7 0 9 -4 6 -10 -3 -5 -2
-10 3 -10 8 0 23 -12 84 -64 12 -11 18 -12 22 -3 3 9 5 8 5 -1 1 -7 5 -10 11
-7 6 3 7 -1 4 -9 -4 -11 0 -16 11 -16 10 0 13 -5 9 -12 -4 -6 -3 -8 3 -5 5 3
27 -8 48 -26 21 -17 45 -32 53 -34 8 -1 18 -5 21 -10 12 -16 45 -39 37 -25 -7
11 -4 11 12 1 12 -7 18 -17 16 -21 -3 -4 2 -8 10 -8 9 0 16 -6 16 -12 0 -9 4
-8 10 2 8 13 10 13 10 -2 0 -9 5 -20 12 -24 7 -5 8 -2 3 7 -5 8 3 4 17 -9 14
-13 35 -24 46 -25 11 0 20 -6 19 -11 -1 -6 8 -12 21 -14 13 -2 26 -10 29 -18
3 -8 9 -11 14 -8 5 3 6 11 3 17 -4 7 -3 8 2 4 9 -8 10 -12 13 -38 1 -8 6 -8
16 1 9 7 18 10 22 6 3 -3 0 -6 -8 -6 -10 -1 -9 -4 4 -11 9 -5 21 -7 27 -4 5 3
14 -4 20 -15 6 -11 18 -20 26 -20 9 0 22 -7 31 -16 9 -8 22 -13 29 -10 8 3 14
-1 14 -10 0 -9 5 -12 11 -8 6 3 14 2 18 -4 3 -5 15 -12 26 -14 11 -1 26 -9 33
-16 8 -7 17 -10 22 -7 4 3 11 -2 14 -11 3 -8 10 -13 15 -9 5 3 12 1 16 -5 3
-5 12 -10 18 -10 7 0 6 4 -3 10 -10 7 -11 10 -2 10 7 0 15 -7 18 -15 4 -8 10
-12 15 -9 5 3 6 10 3 16 -4 7 -2 8 4 4 6 -4 9 -13 5 -21 -4 -11 2 -15 22 -15
14 0 24 -4 21 -8 -3 -5 1 -9 9 -9 8 0 11 5 8 11 -4 6 3 3 14 -7 11 -9 23 -14
26 -10 4 3 7 1 7 -5 0 -7 9 -12 20 -12 11 0 20 -4 20 -10 0 -5 5 -10 11 -10 5
0 8 4 5 8 -3 5 16 -2 42 -14 26 -13 55 -21 66 -18 13 5 16 3 11 -7 -6 -9 -4
-11 8 -6 8 3 21 -1 28 -9 9 -12 15 -12 27 -2 11 9 14 9 9 1 -4 -6 -3 -14 3
-18 5 -3 10 -1 10 6 0 8 3 9 13 0 8 -6 17 -8 20 -4 4 3 7 1 7 -6 0 -9 10 -12
30 -9 19 3 31 0 35 -10 4 -12 8 -12 22 -1 12 10 14 10 9 1 -7 -11 5 -17 27
-13 4 1 17 -4 28 -10 15 -8 24 -7 37 3 11 9 14 10 8 1 -6 -11 7 -18 17 -10 2
1 11 -4 20 -12 14 -11 20 -11 33 -1 12 11 15 11 12 0 -2 -7 3 -15 11 -18 10
-3 11 0 5 9 -6 10 0 9 18 -3 19 -12 28 -14 37 -5 8 8 11 8 11 0 0 -6 16 -13
35 -15 19 -2 35 0 35 5 0 5 7 1 16 -8 13 -12 19 -13 24 -5 6 9 9 9 11 1 2 -6
28 -13 57 -14 28 -1 52 -6 52 -10 0 -5 5 -5 10 -2 6 4 17 2 25 -5 9 -8 15 -8
20 0 5 8 11 8 21 -1 11 -9 14 -9 14 1 0 8 4 9 13 3 6 -5 23 -9 37 -8 14 0 28
-4 32 -9 4 -6 13 -5 22 3 11 9 16 10 16 2 0 -13 22 -10 32 4 5 7 8 6 8 0 0 -6
11 -12 26 -13 14 -1 22 2 19 8 -3 5 7 3 22 -5 15 -8 30 -11 33 -7 8 11 80 8
80 -2 0 -6 7 -1 15 10 12 15 14 15 9 2 -5 -15 -2 -16 25 -8 19 5 29 5 26 0 -5
-9 75 -3 84 6 2 2 11 -2 19 -9 13 -10 15 -9 9 8 -6 18 -6 18 6 3 12 -15 14
-15 25 0 7 9 10 11 7 5 -7 -15 72 -15 82 0 3 5 9 4 13 -4 7 -10 12 -10 26 2
10 8 15 9 11 2 -8 -12 10 -12 31 0 6 5 12 5 12 0 0 -4 5 -1 10 7 5 8 10 10 10
5 0 -6 18 -10 39 -10 33 0 37 2 28 14 -10 12 -9 12 9 3 16 -8 24 -8 34 1 7 7
10 7 7 1 -4 -6 3 -10 16 -8 12 1 22 3 22 4 0 1 22 3 50 6 27 3 53 10 57 17 6
9 10 9 17 -2 6 -9 11 -10 15 -2 4 6 18 8 32 5 13 -3 24 -2 24 2 0 5 12 10 26
11 15 0 30 7 35 15 6 9 9 9 9 1 0 -13 39 -9 49 4 10 13 31 14 31 1 0 -9 4 -8
10 2 5 8 10 11 10 6 0 -6 7 -1 16 10 8 10 13 14 10 7 -4 -7 1 -11 14 -10 13 1
19 6 15 15 -3 8 0 10 8 5 32 -20 48 -9 25 17 -9 10 -7 10 7 -1 11 -8 26 -14
33 -13 6 1 17 2 23 3 5 0 7 7 3 14 -5 7 0 6 11 -3 17 -14 18 -13 11 5 -6 16
-5 18 5 7 18 -17 32 -15 25 4 -5 13 -3 14 7 6 7 -6 18 -7 26 -2 8 4 20 6 28 3
7 -3 13 0 13 6 0 6 7 8 17 4 10 -4 14 -2 10 4 -4 6 0 14 9 17 9 3 12 2 9 -5
-8 -13 47 0 56 13 3 6 9 9 13 9 19 -3 27 0 22 8 -3 4 6 6 19 3 14 -2 25 0 25
5 0 9 6 11 49 15 11 1 17 7 14 12 -4 5 1 7 10 3 9 -3 17 -2 19 4 2 5 17 12 33
15 16 3 32 10 36 15 3 6 16 11 27 12 12 1 22 6 22 11 0 5 3 6 6 3 4 -3 16 -1
28 5 11 7 25 11 29 10 5 -1 5 3 1 9 -5 9 -2 10 9 6 9 -3 19 -2 22 4 4 5 11 7
16 4 5 -4 12 1 15 9 3 9 10 13 15 10 5 -3 9 0 9 6 0 6 4 9 9 5 5 -3 15 0 23 7
7 7 20 14 28 16 7 2 20 11 28 20 7 9 11 12 8 5 -8 -16 55 16 72 36 8 9 11 10
7 4 -4 -9 -1 -11 9 -7 9 3 16 11 16 16 0 6 6 8 14 5 11 -4 13 0 11 15 -3 15
-1 18 6 11 12 -12 51 -5 43 8 -3 5 4 9 15 9 12 0 21 5 21 10 0 6 7 10 15 10 8
0 15 5 15 11 0 5 -5 7 -12 3 -7 -4 -8 -3 -4 5 6 9 11 9 21 1 7 -6 15 -7 17 -3
1 4 17 16 33 25 17 10 30 23 29 31 -1 8 5 14 12 14 7 0 11 -4 8 -8 -3 -5 9 -1
25 9 17 9 26 19 21 20 -20 7 -9 19 14 15 20 -4 23 -1 21 21 -2 14 1 24 6 20 5
-3 7 -9 4 -14 -10 -17 13 -19 26 -3 12 14 12 16 -1 8 -9 -5 -12 -5 -7 1 5 5
12 9 15 9 21 2 52 18 52 27 0 5 -7 8 -15 5 -8 -4 -17 -2 -20 3 -3 5 8 7 25 5
16 -2 30 0 30 5 0 6 7 10 15 10 8 0 15 5 15 10 0 6 7 10 15 10 8 0 15 4 15 9
0 5 15 19 34 32 19 13 32 28 29 33 -4 5 1 7 11 3 10 -4 15 -3 11 3 -3 6 -2 10
4 10 6 0 22 12 37 28 15 15 23 20 19 12 -3 -8 6 -2 21 15 15 16 31 31 36 31
21 3 22 5 10 13 -10 6 -7 10 12 15 15 4 24 11 21 16 -3 6 1 10 10 10 11 0 15
5 12 14 -4 9 -1 13 6 10 13 -5 64 45 59 58 -1 4 6 4 15 1 11 -4 14 -3 9 5 -4
7 -2 12 4 12 7 0 10 7 7 14 -4 11 -1 13 10 9 12 -5 14 -3 8 7 -6 9 -4 11 5 5
16 -10 33 17 17 28 -8 6 -6 7 5 4 20 -7 43 17 32 35 -6 10 -4 10 9 0 14 -12
17 -10 23 12 3 14 9 25 13 23 3 -2 23 14 44 35 25 24 32 36 20 33 -11 -4 -9
-1 5 6 12 7 22 16 22 21 0 5 5 6 10 3 6 -4 10 -3 9 2 -4 21 2 33 18 33 9 0 13
3 10 6 -4 4 3 15 15 25 11 11 17 19 13 19 -4 0 4 11 19 25 16 15 25 32 22 40
-3 8 -2 14 2 14 21 -3 32 3 32 17 0 8 4 13 9 9 5 -3 13 4 16 16 4 12 16 32 27
44 11 13 20 26 19 29 0 3 13 20 29 38 17 18 30 38 30 45 0 7 5 13 12 13 6 0 9
3 5 6 -3 3 -2 11 3 18 50 61 61 76 55 76 -3 0 6 16 21 35 14 19 23 35 18 35
-4 0 -1 6 8 13 8 6 37 53 63 102 27 50 57 105 67 123 10 18 18 39 18 46 0 8 3
16 8 18 6 3 76 142 78 157 0 3 10 28 22 54 12 27 22 51 22 54 0 3 6 19 14 36
13 30 50 126 52 137 0 3 3 12 7 20 10 26 47 145 47 152 1 4 7 26 16 49 8 23
12 44 10 47 -3 2 1 17 9 32 8 16 16 42 17 59 1 17 5 31 8 31 3 0 6 10 7 23 1
23 8 63 18 107 3 14 7 36 10 50 3 14 7 36 10 50 5 25 16 110 20 165 2 17 4 30
5 30 4 0 13 135 14 207 1 43 3 78 6 78 3 0 6 9 6 20 0 11 -4 20 -8 20 -4 0 -3
11 2 25 7 18 6 25 -2 25 -9 0 -9 3 0 12 7 7 8 17 1 30 -5 10 -6 18 -2 18 4 0
7 17 6 37 -13 211 -20 284 -28 292 -3 2 0 10 6 18 6 7 7 13 2 13 -5 0 -10 18
-11 39 -2 21 -5 54 -8 72 -3 19 -6 42 -7 52 -1 9 -5 17 -10 17 -4 0 -5 4 -2
10 3 5 1 27 -4 47 -6 21 -13 54 -15 73 -3 19 -10 50 -15 69 -6 19 -9 37 -6 39
2 3 -1 14 -7 26 -6 11 -13 30 -15 41 -12 70 -16 85 -25 85 -5 0 -8 6 -5 13 2
6 -5 37 -15 67 -11 30 -21 62 -23 70 -2 8 -4 15 -5 15 -1 0 -3 8 -5 17 -2 9
-10 31 -19 49 -9 17 -13 35 -10 40 3 5 0 9 -6 9 -7 0 -10 6 -7 14 3 8 3 16 -1
18 -4 2 -20 36 -36 76 -15 39 -32 72 -37 72 -6 0 -8 4 -5 9 13 21 -229 474
-292 547 -6 6 -24 35 -41 65 -17 30 -31 50 -31 44 0 -5 -10 8 -21 30 -12 22
-27 44 -33 50 -7 5 -25 28 -41 50 -39 53 -56 74 -79 96 -11 11 -17 19 -14 19
6 0 -37 50 -114 133 -21 21 -38 43 -38 48 0 5 -7 9 -16 9 -8 0 -13 3 -11 8 5
9 -50 62 -57 54 -3 -3 -6 0 -6 6 0 18 -32 52 -43 45 -6 -4 -7 -1 -3 6 5 8 0
14 -13 18 -11 3 -19 9 -16 13 7 11 -70 71 -80 62 -5 -4 -5 -2 -2 5 9 15 -21
45 -35 37 -7 -5 -8 -2 -4 5 5 8 0 14 -13 18 -11 3 -19 8 -17 12 1 3 -5 14 -16
24 -10 9 -18 15 -18 12 0 -6 -32 20 -66 53 -13 13 -29 20 -34 17 -6 -3 -7 1
-4 10 4 9 3 15 -2 13 -5 -2 -19 7 -32 20 -12 12 -27 20 -32 17 -6 -4 -10 1
-10 10 0 9 -4 14 -9 10 -6 -3 -14 2 -19 11 -5 9 -13 16 -18 16 -5 0 -8 4 -6 9
3 13 -12 11 -25 -2 -9 -9 -10 -6 -6 11 4 15 2 21 -4 17 -6 -4 -16 0 -23 8 -8
9 -21 13 -34 10 -16 -5 -18 -4 -6 4 12 8 9 12 -13 20 -15 6 -27 15 -27 20 0 6
-16 18 -35 27 -19 9 -35 21 -35 26 0 6 -8 4 -17 -3 -11 -10 -14 -10 -9 -1 4 7
2 12 -4 12 -6 0 -8 5 -4 12 4 6 3 8 -4 4 -6 -3 -14 -1 -17 5 -4 5 -14 8 -22 5
-8 -3 -12 -2 -9 3 3 5 -8 14 -24 21 -17 7 -30 16 -30 21 0 5 -7 9 -15 9 -8 0
-15 5 -15 11 0 5 -4 8 -8 5 -5 -3 -19 4 -30 15 -12 11 -22 17 -22 14 0 -3 -10
0 -22 7 -13 7 -26 11 -30 10 -5 -1 -8 2 -8 6 0 5 -16 14 -35 22 -19 8 -35 18
-35 22 0 5 -4 7 -9 3 -5 -3 -12 -1 -16 5 -4 6 -10 8 -15 5 -5 -3 -13 3 -19 12
-8 13 -10 14 -11 4 0 -11 -4 -10 -13 4 -8 10 -19 15 -25 11 -7 -4 -12 -2 -12
4 0 6 -4 8 -10 5 -5 -3 -10 -1 -10 5 0 6 -4 8 -10 5 -5 -3 -10 -1 -10 5 0 6
-4 9 -9 6 -5 -3 -12 2 -15 11 -5 13 -9 14 -15 5 -6 -10 -11 -10 -21 3 -7 8
-21 15 -32 15 -10 0 -16 5 -13 10 9 14 -8 13 -23 -2 -9 -9 -12 -8 -12 5 0 9
-3 17 -7 16 -5 -1 -18 2 -30 6 -12 4 -25 6 -29 5 -4 -1 -10 3 -13 9 -4 6 -16
12 -26 14 -11 1 -26 6 -32 10 -8 5 -13 3 -13 -4 0 -7 -9 -2 -20 11 -13 15 -20
18 -20 9 0 -11 -2 -11 -10 1 -5 8 -10 11 -10 6 0 -5 -6 -4 -13 3 -10 8 -17 7
-26 -2 -10 -9 -11 -8 -5 7 5 13 4 17 -4 12 -6 -3 -13 -2 -16 3 -3 5 -15 7 -26
4 -12 -3 -20 0 -20 7 0 7 -6 10 -14 7 -8 -3 -17 -3 -20 1 -4 3 -12 7 -19 8 -7
2 -26 7 -44 12 -17 6 -34 8 -37 4 -3 -3 -6 1 -6 8 0 7 -3 11 -6 8 -3 -4 -20
-2 -37 3 -39 12 -63 18 -102 24 -48 7 -59 10 -72 18 -7 5 -17 5 -23 2 -5 -3
-18 -1 -28 4 -13 7 -23 6 -32 -2 -10 -9 -11 -9 -6 1 5 8 -1 13 -16 14 -26 1
-25 1 -88 13 -25 4 -56 9 -70 10 -14 2 -45 6 -68 9 -35 6 -42 5 -36 -6 6 -11
5 -11 -8 0 -9 7 -53 15 -100 18 -45 2 -101 6 -123 8 -22 2 -48 -1 -59 -6 -13
-7 -16 -7 -12 1 5 7 -1 11 -14 11 -14 0 -19 -4 -14 -12 6 -10 4 -10 -7 0 -16
15 -133 17 -124 1 4 -6 -3 -5 -14 3 -18 11 -23 11 -30 -1 -7 -11 -10 -11 -15
0 -5 11 -7 11 -12 2 -3 -7 -10 -13 -15 -13 -6 0 -7 5 -4 10 3 6 1 10 -4 10 -6
0 -11 -6 -11 -12 0 -10 -3 -9 -9 1 -7 11 -9 11 -14 0 -5 -12 -6 -12 -6 0 -1
11 -4 11 -18 0 -15 -12 -16 -12 -8 1 8 13 7 13 -9 1 -13 -11 -19 -12 -25 -3
-4 7 -11 9 -14 5z m854 -60 c13 -16 12 -17 -3 -4 -10 7 -18 15 -18 17 0 8 8 3
21 -13z m109 -37 c0 -2 -8 -10 -17 -17 -16 -13 -17 -12 -4 4 13 16 21 21 21
13z m220 -20 c0 -2 -7 -7 -16 -10 -8 -3 -12 -2 -9 4 6 10 25 14 25 6z m-955
-86 c3 6 12 7 18 3 19 -12 39 -13 57 -3 11 6 21 5 27 -1 8 -8 18 -7 33 1 12 7
20 8 17 3 -3 -5 35 -8 84 -8 49 0 89 -2 89 -5 0 -3 27 -5 60 -5 32 1 57 -1 55
-5 -2 -3 16 -5 41 -5 25 1 47 -2 50 -7 3 -4 14 -3 26 3 16 8 19 8 13 -1 -6 -9
0 -11 24 -8 17 2 31 2 31 -2 0 -3 10 -6 23 -7 73 -4 97 -7 97 -14 0 -4 7 -6
17 -5 9 2 40 -3 70 -10 29 -7 53 -9 53 -6 0 3 5 1 11 -5 6 -6 18 -9 25 -6 8 3
14 -1 14 -8 0 -11 3 -11 10 1 8 12 10 12 10 1 0 -8 2 -12 6 -9 3 3 25 0 49 -7
24 -8 46 -11 49 -8 3 4 6 1 6 -5 0 -7 12 -10 30 -8 16 2 31 -1 33 -7 1 -5 17
-10 34 -11 17 0 29 -4 26 -8 -4 -7 5 -9 59 -13 9 0 21 -5 25 -9 5 -5 2 -6 -6
-1 -10 6 -12 4 -7 -4 5 -7 15 -10 23 -7 8 3 20 3 26 -1 7 -4 15 -8 20 -9 4 -1
9 -3 12 -4 3 -1 8 -3 13 -5 4 -1 15 -5 25 -8 24 -10 46 -16 55 -17 4 -1 17 -8
30 -16 12 -8 27 -12 32 -9 6 3 10 1 10 -4 0 -6 7 -11 15 -11 9 0 30 -7 46 -16
17 -8 41 -17 52 -20 12 -2 23 -8 25 -14 2 -6 8 -8 13 -4 5 3 9 0 9 -7 0 -7 3
-9 7 -6 3 4 17 0 31 -9 17 -11 22 -12 17 -3 -5 8 3 4 17 -8 13 -13 32 -23 41
-23 9 0 17 -5 17 -11 0 -5 5 -7 11 -3 6 3 15 0 20 -7 4 -8 12 -14 16 -14 4 -1
23 -9 41 -18 17 -10 32 -15 32 -12 0 3 9 -4 20 -15 11 -11 26 -20 34 -20 7 0
19 -7 26 -15 7 -9 19 -14 27 -11 7 3 13 1 13 -3 0 -5 39 -32 88 -61 48 -29
103 -66 123 -81 20 -16 40 -29 43 -29 3 0 14 -7 23 -15 10 -8 50 -37 88 -65
39 -29 74 -58 78 -66 4 -8 12 -14 18 -14 5 0 20 -10 33 -22 13 -13 47 -43 77
-68 66 -56 220 -210 291 -292 29 -34 62 -71 73 -82 11 -12 33 -39 49 -61 17
-22 35 -43 40 -47 7 -5 7 -8 1 -8 -6 0 -5 -4 1 -8 17 -10 84 -100 84 -112 0
-5 6 -13 13 -17 8 -4 24 -27 37 -50 13 -24 28 -43 32 -43 5 0 6 -5 3 -10 -3
-6 1 -13 10 -16 10 -4 14 -13 10 -22 -3 -9 -3 -13 1 -9 4 4 17 -13 29 -38 12
-24 24 -43 26 -41 2 3 9 -6 16 -20 7 -16 7 -22 1 -17 -7 4 -8 1 -4 -6 5 -7 14
-10 22 -7 8 3 11 0 8 -9 -3 -8 4 -28 15 -44 12 -16 21 -36 21 -45 0 -9 5 -16
11 -16 5 0 8 -4 4 -9 -3 -6 3 -14 12 -20 10 -6 14 -11 10 -11 -4 0 -2 -10 5
-22 7 -13 13 -26 14 -30 1 -5 3 -11 4 -15 1 -5 2 -11 1 -15 0 -5 4 -8 9 -8 6
0 10 -7 10 -15 0 -8 5 -15 12 -15 6 0 8 -3 5 -7 -4 -3 -2 -12 4 -20 6 -7 8
-13 5 -13 -4 0 -1 -10 6 -22 7 -13 13 -25 14 -28 1 -3 5 -15 9 -27 4 -13 11
-21 15 -18 5 3 12 0 16 -6 4 -8 3 -9 -4 -5 -7 4 -12 1 -12 -9 0 -8 7 -18 16
-22 11 -4 12 -8 4 -13 -8 -5 -8 -11 3 -21 7 -8 12 -20 9 -28 -3 -8 0 -11 7 -7
7 5 11 -3 11 -23 0 -23 5 -31 18 -32 14 0 14 -2 -3 -9 -11 -5 -14 -9 -7 -9 6
-1 12 -10 12 -21 0 -11 5 -20 11 -20 5 0 8 -4 4 -9 -3 -6 3 -15 12 -21 16 -10
16 -11 1 -6 -14 4 -15 1 -8 -17 4 -12 14 -21 22 -19 10 3 10 1 2 -8 -13 -13
-7 -50 8 -50 5 0 6 -5 3 -10 -4 -6 -1 -18 7 -27 9 -12 9 -15 1 -9 -8 4 -6 -9
6 -36 10 -24 16 -49 14 -55 -3 -7 0 -13 6 -13 6 0 11 -5 11 -11 0 -5 -6 -7
-12 -3 -10 6 -10 5 -1 -7 6 -8 14 -35 18 -61 4 -26 10 -46 14 -44 4 3 5 -11 3
-30 -2 -19 0 -34 4 -34 5 0 10 -21 11 -47 1 -26 7 -49 13 -51 8 -3 7 -8 -1
-18 -6 -8 -7 -14 -2 -14 5 0 10 -17 11 -37 3 -59 7 -87 15 -100 5 -8 3 -13 -3
-13 -7 0 -8 -6 -2 -17 4 -10 8 -34 7 -55 0 -20 3 -34 7 -32 5 3 8 0 8 -5 0 -6
-4 -11 -9 -11 -4 0 -6 -11 -3 -25 2 -14 9 -25 16 -25 6 0 4 -5 -4 -10 -13 -9
-13 -11 0 -20 13 -8 13 -10 1 -10 -12 0 -12 -3 -3 -12 8 -8 9 -15 1 -25 -9 -9
-8 -13 0 -13 7 0 9 -5 6 -11 -12 -18 -13 -59 -1 -59 7 0 7 -3 1 -8 -16 -11
-12 -76 5 -90 8 -8 10 -11 3 -8 -14 7 -27 -10 -14 -18 7 -5 8 -41 1 -41 -1 0
-3 -10 -6 -23 -3 -17 -1 -21 8 -16 8 5 8 1 -1 -10 -13 -15 -13 -19 0 -27 8 -5
9 -9 3 -9 -7 0 -14 -9 -17 -20 -3 -12 -1 -18 5 -14 7 4 7 -2 2 -17 -4 -13 -9
-44 -10 -69 -7 -89 -14 -143 -19 -148 -2 -3 0 -11 6 -18 6 -8 7 -14 0 -18 -6
-4 -8 -13 -4 -21 3 -9 -1 -15 -8 -15 -11 0 -11 -3 1 -10 12 -7 12 -10 1 -10
-7 0 -11 -6 -8 -14 3 -8 3 -17 -1 -21 -3 -3 -7 -16 -8 -28 -1 -12 -5 -31 -10
-41 -6 -15 -4 -17 7 -11 12 8 12 6 1 -8 -8 -9 -12 -22 -9 -29 2 -7 -2 -26 -10
-41 -11 -22 -12 -32 -2 -43 10 -12 9 -13 -7 -7 -17 6 -18 5 -4 -12 8 -10 10
-16 4 -12 -12 7 -34 -69 -37 -130 -1 -17 -5 -29 -9 -26 -8 4 -9 2 -13 -32 -1
-12 -7 -31 -14 -43 -6 -12 -9 -22 -6 -22 4 0 3 -6 -2 -12 -8 -14 -13 -31 -17
-61 -1 -10 -8 -22 -14 -26 -6 -4 -10 -17 -7 -29 2 -13 0 -20 -5 -17 -11 7 -23
-32 -14 -46 5 -8 3 -9 -5 -5 -8 5 -11 3 -10 -5 1 -8 -4 -27 -11 -44 -7 -16
-14 -37 -16 -45 -2 -8 -7 -16 -13 -18 -5 -2 -7 -10 -4 -18 3 -8 0 -14 -6 -14
-6 0 -10 -3 -9 -7 0 -5 -7 -26 -17 -48 -9 -22 -17 -42 -17 -45 0 -3 -6 -12
-13 -20 -7 -8 -14 -18 -14 -23 -1 -14 -64 -132 -73 -138 -5 -3 -10 -10 -10
-15 0 -12 -36 -81 -58 -114 -9 -14 -48 -72 -86 -130 -38 -58 -73 -110 -79
-116 -5 -7 -19 -24 -29 -39 -11 -14 -27 -35 -36 -45 -9 -10 -25 -31 -36 -45
-10 -15 -31 -41 -46 -58 -15 -18 -28 -36 -28 -40 0 -5 -4 -5 -10 -2 -5 3 -10
1 -10 -5 0 -6 -10 -21 -22 -34 -134 -139 -192 -196 -199 -196 -4 0 -11 -9 -14
-21 -4 -11 -9 -18 -12 -15 -3 2 -18 -9 -34 -25 -16 -16 -29 -26 -29 -22 0 4
-9 -5 -19 -20 -10 -16 -22 -28 -26 -27 -3 1 -22 -12 -40 -28 -18 -17 -36 -28
-39 -25 -3 4 -6 2 -6 -4 0 -6 -33 -35 -72 -64 -40 -30 -76 -58 -80 -64 -4 -5
-8 -6 -8 -2 0 4 -10 -1 -22 -13 -12 -11 -26 -20 -30 -20 -5 0 -6 -5 -3 -10 4
-6 3 -10 -2 -9 -19 3 -34 -2 -29 -9 3 -5 0 -9 -7 -9 -17 0 -67 -33 -67 -44 0
-5 -3 -9 -7 -8 -17 2 -52 -14 -48 -21 3 -5 -8 -11 -24 -15 -16 -3 -42 -18 -57
-33 -15 -15 -24 -20 -19 -12 6 11 3 10 -12 -3 -11 -9 -25 -17 -31 -17 -6 0
-21 -10 -33 -22 -12 -13 -19 -17 -15 -11 9 16 -56 -18 -67 -35 -5 -7 -12 -10
-18 -7 -5 4 -9 1 -9 -4 0 -6 -3 -10 -7 -9 -13 4 -73 -24 -73 -34 0 -5 -4 -7
-9 -3 -5 3 -15 0 -23 -7 -7 -7 -19 -13 -25 -14 -29 -2 -34 -4 -29 -12 3 -5 0
-9 -7 -10 -20 -2 -40 -8 -87 -28 -25 -10 -49 -18 -53 -16 -4 1 -10 -5 -13 -13
-3 -8 -10 -12 -15 -9 -6 3 -20 -1 -32 -9 -12 -8 -30 -13 -39 -11 -10 1 -18 -2
-18 -7 0 -5 -3 -8 -7 -7 -5 1 -18 -3 -29 -10 -12 -6 -24 -8 -28 -5 -3 4 -13
-2 -22 -13 -8 -10 -13 -13 -9 -7 3 7 1 13 -4 13 -6 0 -11 -4 -11 -9 0 -5 -8
-8 -17 -7 -11 0 -17 -5 -15 -13 3 -12 0 -12 -12 -2 -10 8 -16 9 -21 1 -3 -6
-11 -8 -16 -5 -5 4 -9 2 -9 -4 0 -5 -11 -8 -25 -6 -17 1 -25 -3 -25 -14 0 -13
-2 -13 -9 -2 -5 8 -11 9 -15 3 -3 -6 -14 -11 -24 -11 -16 0 -50 -6 -62 -12 -3
-1 -9 -3 -15 -4 -5 -2 -12 -4 -15 -5 -22 -8 -95 -23 -113 -22 -9 0 -16 -2 -13
-6 2 -4 -14 -8 -37 -9 -22 -2 -44 -9 -49 -15 -6 -10 -8 -10 -8 0 0 9 -5 10
-17 3 -18 -9 -70 -17 -167 -26 -27 -2 -54 -9 -59 -14 -7 -7 -15 -7 -24 0 -8 8
-17 8 -25 2 -7 -5 -32 -9 -55 -8 -24 1 -43 -1 -43 -4 0 -3 -23 -5 -50 -4 -34
1 -48 -2 -44 -9 5 -7 2 -8 -7 -2 -19 12 -32 12 -46 1 -9 -6 -13 -5 -13 3 0 10
-3 10 -14 1 -10 -8 -16 -9 -21 -1 -3 6 -11 8 -16 4 -18 -11 -59 -12 -59 -1 0
6 -10 2 -22 -9 -12 -10 -18 -13 -14 -6 7 11 -13 18 -39 12 -34 -7 -55 -6 -55
4 0 7 -3 7 -8 1 -9 -13 -42 -15 -42 -3 0 6 -6 5 -15 -2 -8 -7 -15 -9 -15 -4 0
5 -16 9 -35 10 -20 0 -32 -3 -28 -9 4 -6 1 -7 -8 -1 -19 11 -33 13 -106 15
-35 1 -63 6 -63 11 0 7 -5 6 -13 -1 -8 -6 -17 -7 -21 -3 -4 4 -22 8 -39 9 -39
2 -132 11 -132 13 0 2 -39 10 -70 14 -16 3 -32 5 -35 6 -3 1 -9 2 -14 1 -5 -1
-13 4 -17 11 -7 10 -9 10 -9 0 0 -9 -5 -10 -19 -3 -10 6 -21 7 -25 4 -3 -3 -6
-1 -6 7 0 10 -4 10 -17 -1 -9 -8 -14 -9 -10 -3 4 8 -5 14 -26 17 -17 3 -45 8
-62 12 -16 4 -34 8 -40 9 -5 1 -16 5 -22 9 -7 5 -18 5 -23 2 -6 -4 -17 -1 -25
5 -8 7 -21 10 -29 7 -8 -3 -16 -1 -18 4 -2 5 -13 11 -26 12 -12 0 -22 4 -22 7
0 3 -12 7 -26 8 -15 1 -33 7 -40 13 -7 6 -18 8 -23 5 -5 -4 -13 -1 -16 5 -4 5
-13 8 -20 5 -8 -3 -15 0 -17 5 -2 6 -16 12 -31 12 -15 1 -27 5 -27 10 0 4 -9
7 -20 7 -11 0 -20 5 -20 11 0 5 -4 8 -9 4 -5 -3 -12 -1 -16 5 -4 6 -10 8 -15
5 -5 -3 -11 -1 -15 5 -3 5 -15 10 -26 10 -10 0 -19 5 -19 11 0 5 -4 8 -8 5 -5
-3 -21 2 -36 10 -16 7 -34 14 -41 14 -7 0 -15 4 -17 10 -1 5 -12 11 -24 13
-12 1 -34 11 -49 21 -15 10 -25 14 -22 9 4 -5 0 -10 -8 -10 -8 0 -12 4 -9 8 6
11 -96 60 -108 52 -7 -3 -8 -1 -4 5 5 8 0 12 -12 12 -11 0 -23 7 -26 16 -3 8
-10 13 -15 10 -5 -3 -14 0 -20 8 -6 7 -31 21 -56 32 -25 10 -45 22 -45 27 0 4
-5 5 -10 2 -6 -3 -13 1 -16 10 -4 9 -12 14 -19 11 -6 -2 -18 4 -25 14 -8 11
-17 17 -22 14 -4 -3 -8 -1 -8 3 0 5 -24 21 -54 36 -30 15 -57 34 -60 42 -3 8
-14 15 -25 15 -11 0 -25 9 -31 20 -6 11 -15 20 -21 20 -9 0 -21 8 -58 40 -9 8
-33 26 -54 40 -20 14 -37 28 -37 33 0 4 -6 7 -13 7 -7 0 -19 9 -27 20 -8 11
-18 20 -23 20 -5 0 -22 14 -38 31 -16 17 -29 28 -29 25 0 -3 -18 12 -40 34
-23 23 -46 38 -52 34 -6 -4 -8 -3 -4 4 3 6 -5 19 -19 30 -13 11 -22 22 -19 25
3 3 -4 8 -15 12 -12 3 -19 11 -16 16 4 5 1 9 -6 9 -6 0 -25 16 -42 35 -16 19
-33 32 -38 29 -7 -4 -13 10 -7 19 1 1 -29 33 -65 70 -37 37 -67 70 -67 72 0
11 -34 43 -42 39 -4 -3 -5 3 -1 12 4 12 3 15 -5 10 -7 -4 -12 -2 -12 3 0 11
-57 89 -85 117 -8 9 -15 20 -15 25 0 6 -5 7 -10 4 -6 -4 -9 -3 -8 2 3 9 -39
80 -59 101 -7 7 -19 10 -25 6 -9 -6 -9 -3 1 9 9 12 10 17 2 17 -7 0 -10 4 -6
9 3 5 -6 19 -21 30 -14 11 -23 25 -19 31 3 5 1 10 -4 10 -6 0 -11 7 -11 15 0
8 -4 15 -9 15 -5 0 -15 16 -22 35 -7 19 -17 35 -21 35 -4 0 -8 7 -8 15 0 8 -4
15 -10 15 -5 0 -10 9 -10 20 0 11 -4 20 -10 20 -5 0 -10 7 -10 15 0 8 -4 15
-10 15 -5 0 -10 9 -10 19 0 11 -3 21 -7 23 -7 3 -40 67 -44 86 -1 4 -9 13 -18
20 -12 10 -13 12 -1 6 8 -4 5 4 -8 18 -12 13 -20 27 -16 30 3 4 0 17 -7 30 -7
12 -12 26 -11 31 1 4 -3 7 -8 7 -5 0 -9 3 -9 8 1 4 0 10 -1 15 -1 4 -3 13 -4
20 -1 6 -6 11 -11 10 -6 -1 -11 13 -12 30 -2 18 -7 33 -13 35 -6 2 -8 8 -4 13
3 5 0 9 -6 9 -6 0 -9 4 -5 10 3 5 1 17 -4 27 -10 19 -35 84 -36 93 -1 3 -8 28
-17 55 -9 28 -18 59 -20 70 -2 11 -6 22 -10 25 -3 3 -8 20 -11 38 -3 18 -11
40 -17 48 -10 11 -10 14 0 14 10 0 10 3 1 14 -6 8 -11 18 -10 22 2 9 -3 24
-22 72 -7 17 -6 21 2 16 8 -5 9 -3 3 7 -4 8 -10 22 -11 32 -6 35 -12 62 -13
62 -1 0 -3 14 -5 30 -1 17 -3 30 -5 30 -1 0 -4 16 -6 35 -2 19 -6 49 -9 65
-10 51 -27 248 -27 313 -1 23 -5 42 -10 42 -5 0 -6 6 -1 13 11 18 11 57 0 57
-5 0 -4 7 3 15 10 12 10 15 0 15 -10 0 -10 3 -1 14 8 9 8 16 2 20 -6 4 -7 16
-3 29 5 12 8 57 8 99 -1 43 1 78 4 78 3 0 4 19 3 42 0 24 2 47 5 53 10 15 10
45 0 45 -5 0 -6 6 -1 13 4 6 9 21 10 32 1 11 5 33 8 48 3 20 1 26 -8 21 -6 -4
-4 1 5 12 14 16 15 23 6 32 -7 7 -8 12 -2 12 10 0 15 27 18 87 0 17 5 29 10
26 5 -3 7 6 4 21 -3 14 -2 26 2 26 4 0 7 6 8 13 2 22 9 62 15 77 14 41 15 50
7 55 -6 4 -10 12 -10 18 0 7 4 6 10 -3 5 -8 10 -12 10 -7 0 12 1 15 11 49 12
41 21 79 22 96 0 6 5 12 10 12 5 0 7 7 3 15 -3 8 -1 15 4 15 6 0 9 3 9 8 -1 4
-1 9 1 12 1 3 3 14 5 26 3 11 11 33 19 49 8 16 13 32 10 37 -3 4 -1 8 5 8 5 0
8 9 6 20 -2 11 1 20 7 20 5 0 8 7 4 15 -3 8 -2 15 3 15 9 0 26 48 22 63 -1 5
3 6 9 2 9 -5 15 15 11 38 0 4 4 7 11 7 6 0 8 3 5 7 -4 3 1 15 10 26 13 15 14
19 3 13 -9 -4 -8 -2 2 7 19 15 25 32 7 22 -6 -4 -5 2 3 14 7 12 16 21 21 21 4
0 6 4 2 9 -3 5 2 17 11 25 8 9 12 16 8 16 -3 0 -1 6 5 13 6 8 8 17 4 20 -3 4
-1 7 6 7 7 0 9 5 6 10 -3 6 -1 10 4 10 6 0 11 6 11 14 0 8 7 22 16 30 8 9 13
16 9 16 -3 0 3 13 14 29 12 16 21 32 21 36 0 4 9 20 21 36 11 16 17 29 12 29
-4 0 -3 4 2 8 14 10 65 90 65 102 0 5 5 10 12 10 6 0 9 3 6 6 -4 3 2 14 13 25
11 11 17 25 13 31 -5 8 -2 9 10 5 10 -4 15 -3 11 3 -3 5 3 19 14 31 11 12 18
27 14 32 -3 6 -1 7 5 3 6 -3 13 2 16 11 3 10 17 30 31 46 15 15 23 32 20 37
-3 6 0 10 7 10 8 0 22 14 31 30 10 17 23 30 28 30 6 0 8 4 5 9 -3 5 1 11 9 15
8 3 15 13 15 21 0 9 4 14 8 11 5 -3 16 8 26 25 9 16 22 29 27 29 6 0 7 5 4 10
-3 6 1 10 9 10 9 0 16 4 16 9 0 4 32 41 70 80 39 40 70 76 70 81 0 5 5 12 12
16 7 5 8 3 3 -7 -5 -8 18 13 51 46 34 33 58 64 56 69 -3 5 0 6 6 2 6 -4 34 17
64 46 53 54 59 58 79 58 5 0 7 5 4 10 -6 9 8 14 28 11 5 -1 6 3 2 8 -3 6 5 15
17 22 13 7 28 19 35 28 7 9 13 12 13 6 0 -5 7 1 16 13 8 12 20 22 26 22 6 0
19 10 29 22 11 11 19 17 19 12 0 -5 7 0 15 10 8 11 15 16 15 11 0 -4 9 2 20
15 11 13 20 19 20 14 0 -5 6 -2 13 6 7 8 29 24 50 35 20 11 37 23 37 28 0 4 5
5 10 2 6 -3 10 -2 10 4 0 5 18 17 40 27 21 10 36 22 33 27 -4 6 0 8 9 4 9 -3
25 3 35 13 11 9 29 21 41 24 12 4 20 12 17 17 -3 5 2 6 11 2 13 -5 15 -3 9 7
-6 9 -4 11 5 5 7 -4 15 -4 19 1 6 9 101 57 134 68 9 3 17 10 17 16 0 6 4 9 9
5 5 -3 12 -1 16 5 4 6 10 8 15 5 4 -3 10 2 14 10 3 8 12 12 21 9 8 -3 15 -1
15 6 0 6 5 8 10 5 6 -3 10 -1 10 5 0 6 4 9 9 5 5 -3 12 -1 16 5 3 5 15 10 26
10 10 0 19 5 19 11 0 5 4 8 9 4 6 -3 26 4 47 15 20 12 39 19 41 16 3 -3 12 2
20 10 8 8 19 12 24 9 5 -4 9 0 9 7 0 11 2 10 9 0 7 -11 9 -10 15 3 3 9 10 13
16 10 5 -3 10 -1 10 5 0 6 5 8 10 5 6 -3 16 -3 23 2 6 4 21 9 32 10 10 2 22 8
26 14 3 6 9 10 13 10 26 -4 36 0 30 12 -5 8 -2 8 9 -2 9 -7 17 -9 17 -4 0 5 6
10 13 11 43 3 57 7 57 16 0 5 3 7 6 3 4 -3 21 0 38 7 17 7 37 11 44 9 6 -3 12
-1 12 4 0 5 8 9 18 10 9 0 26 3 37 6 24 5 97 20 107 21 3 1 9 4 13 8 4 4 13 4
21 1 8 -3 14 -1 14 4 0 5 16 9 35 8 19 0 35 2 35 6 0 3 11 5 25 4 14 -2 28 1
31 6 3 6 15 7 26 3 13 -4 18 -2 14 4 -4 7 3 9 20 6 16 -3 31 0 35 8 7 10 9 10
9 -1 0 -9 4 -10 13 -4 6 5 33 8 59 8 25 0 44 4 40 9 -3 5 2 7 11 3 9 -3 19 -2
22 3 4 6 14 7 23 2 16 -7 36 -8 55 -2 4 1 10 3 15 4 4 1 12 5 19 9 6 4 14 3
18 -3 4 -6 11 -7 17 -4 6 4 44 7 84 7 52 0 72 3 67 11 -4 6 0 5 9 -2 11 -9 18
-10 23 -2z m-1240 -68 c-3 -3 -11 0 -18 7 -9 10 -8 11 6 5 10 -3 15 -9 12 -12z
m3139 -218 c3 -8 2 -12 -4 -9 -6 3 -10 10 -10 16 0 14 7 11 14 -7z m-3838 -99
c-1 -8 -5 -17 -8 -21 -5 -4 -4 16 1 34 3 9 9 -1 7 -13z m-322 -213 c3 -5 -1
-9 -9 -9 -8 0 -12 4 -9 9 3 4 7 8 9 8 2 0 6 -4 9 -8z m-500 -370 c3 -5 -1 -9
-9 -9 -8 0 -12 4 -9 9 3 4 7 8 9 8 2 0 6 -4 9 -8z m-59 -72 c3 -5 1 -10 -4
-10 -6 0 -11 5 -11 10 0 6 2 10 4 10 3 0 8 -4 11 -10z m-624 -907 c13 -16 12
-17 -3 -4 -10 7 -18 15 -18 17 0 8 8 3 21 -13z m-403 -1728 c-3 -3 -9 2 -12
12 -6 14 -5 15 5 6 7 -7 10 -15 7 -18z m187 -954 c3 -5 2 -12 -3 -15 -5 -3 -9
1 -9 9 0 17 3 19 12 6z m19 -189 c3 -5 -1 -9 -9 -9 -8 0 -12 4 -9 9 3 4 7 8 9
8 2 0 6 -4 9 -8z m146 -236 c0 -2 -7 -7 -16 -10 -8 -3 -12 -2 -9 4 6 10 25 14
25 6z m77 -311 c0 -8 -4 -12 -9 -9 -5 3 -6 10 -3 15 9 13 12 11 12 -6z m483
-595 c0 -5 -2 -10 -4 -10 -3 0 -8 5 -11 10 -3 6 -1 10 4 10 6 0 11 -4 11 -10z
m50 -135 c-7 -8 -17 -15 -23 -15 -6 0 -2 7 9 15 25 19 30 19 14 0z m310 -225
c0 -5 -2 -10 -4 -10 -3 0 -8 5 -11 10 -3 6 -1 10 4 10 6 0 11 -4 11 -10z m200
-156 c0 -8 -19 -13 -24 -6 -3 5 1 9 9 9 8 0 15 -2 15 -3z m15 -134 c3 -5 1
-10 -4 -10 -6 0 -11 5 -11 10 0 6 2 10 4 10 3 0 8 -4 11 -10z m176 -43 c-10
-9 -11 -8 -5 6 3 10 9 15 12 12 3 -3 0 -11 -7 -18z m60 -24 c-12 -20 -14 -14
-5 12 4 9 9 14 11 11 3 -2 0 -13 -6 -23z m63 -21 c3 -5 -1 -9 -9 -9 -8 0 -12
4 -9 9 3 4 7 8 9 8 2 0 6 -4 9 -8z m-123 -49 c13 -16 12 -17 -3 -4 -17 13 -22
21 -14 21 2 0 10 -8 17 -17z m310 -70 c13 -16 12 -17 -3 -4 -17 13 -22 21 -14
21 2 0 10 -8 17 -17z m3994 8 c3 -5 2 -12 -3 -15 -5 -3 -9 1 -9 9 0 17 3 19
12 6z m-3715 -125 c0 -3 -4 -8 -10 -11 -5 -3 -10 -1 -10 4 0 6 5 11 10 11 6 0
10 -2 10 -4z m40 -27 c0 -5 -4 -9 -8 -9 -5 0 -9 7 -9 15 0 8 4 12 9 9 4 -3 8
-9 8 -15z m55 -19 c3 -5 1 -10 -4 -10 -6 0 -11 5 -11 10 0 6 2 10 4 10 3 0 8
-4 11 -10z m69 -18 c2 -4 -4 -8 -14 -8 -10 0 -16 4 -14 8 3 4 9 8 14 8 5 0 11
-4 14 -8z m60 -20 c3 -5 -1 -9 -9 -9 -8 0 -12 4 -9 9 3 4 7 8 9 8 2 0 6 -4 9
-8z m-244 -22 c0 -5 -5 -10 -11 -10 -5 0 -7 5 -4 10 3 6 8 10 11 10 2 0 4 -4
4 -10z m337 -15 c0 -8 -4 -12 -9 -9 -5 3 -6 10 -3 15 9 13 12 11 12 -6z m2964
-2 c13 -16 12 -17 -3 -4 -10 7 -18 15 -18 17 0 8 8 3 21 -13z m-2941 -23 c0
-5 -5 -10 -11 -10 -5 0 -7 5 -4 10 3 6 8 10 11 10 2 0 4 -4 4 -10z m55 0 c3
-5 1 -10 -4 -10 -6 0 -11 5 -11 10 0 6 2 10 4 10 3 0 8 -4 11 -10z m-20 -20
c3 -5 1 -10 -4 -10 -6 0 -11 5 -11 10 0 6 2 10 4 10 3 0 8 -4 11 -10z m73 -15
c-3 -3 -9 2 -12 12 -6 14 -5 15 5 6 7 -7 10 -15 7 -18z m115 -18 c4 3 7 1 7
-5 0 -20 -24 -13 -39 11 -13 21 -13 22 6 4 11 -9 23 -14 26 -10z m79 -22 c17
0 15 -11 -2 -12 -11 -1 -20 3 -20 9 0 6 -7 5 -17 -3 -16 -13 -17 -12 -4 3 7
10 18 15 25 11 6 -4 14 -8 18 -8z m-265 -10 c0 -8 -4 -12 -9 -9 -5 3 -6 10 -3
15 9 13 12 11 12 -6z m114 -8 c-10 -9 -11 -8 -5 6 3 10 9 15 12 12 3 -3 0 -11
-7 -18z m202 0 c7 3 8 2 4 -2 -14 -16 -36 -14 -29 3 4 10 7 12 10 4 2 -7 9 -9
15 -5z m37 -1 c0 -2 -8 -10 -17 -17 -16 -13 -17 -12 -4 4 13 16 21 21 21 13z
m14 -21 c-4 -8 -11 -15 -16 -15 -6 0 -5 6 2 15 7 8 14 15 16 15 2 0 1 -7 -2
-15z m36 1 c0 -3 -4 -8 -10 -11 -5 -3 -10 -1 -10 4 0 6 5 11 10 11 6 0 10 -2
10 -4z m11 -19 c-10 -9 -11 -8 -5 6 3 10 9 15 12 12 3 -3 0 -11 -7 -18z m2064
14 c3 -5 2 -12 -3 -15 -5 -3 -9 1 -9 9 0 17 3 19 12 6z m-2031 -17 c3 -8 2
-12 -4 -9 -6 3 -10 10 -10 16 0 14 7 11 14 -7z m-259 -4 c-3 -5 -12 -10 -18
-10 -7 0 -6 4 3 10 19 12 23 12 15 0z m2066 -13 c-10 -9 -11 -8 -5 6 3 10 9
15 12 12 3 -3 0 -11 -7 -18z m-1711 3 c0 -5 -2 -10 -4 -10 -3 0 -8 5 -11 10
-3 6 -1 10 4 10 6 0 11 -4 11 -10z m94 -9 c-8 -8 -43 -8 -38 0 2 4 13 7 24 6
10 -1 17 -3 14 -6z m44 -22 c3 -11 2 -11 -7 1 -10 13 -12 13 -21 0 -5 -8 -10
-10 -10 -4 0 27 31 30 38 3z m53 -12 c-10 -9 -11 -8 -5 6 3 10 9 15 12 12 3
-3 0 -11 -7 -18z m71 -1 c7 4 8 2 4 -5 -9 -13 -26 -5 -25 12 0 9 2 8 6 -1 2
-6 10 -9 15 -6z m58 -3 c0 -3 -7 -3 -15 1 -8 3 -15 0 -15 -6 0 -6 -3 -9 -6 -5
-11 10 6 26 21 20 8 -3 15 -7 15 -10z m-365 -2 c3 -5 2 -12 -3 -15 -5 -3 -9 1
-9 9 0 17 3 19 12 6z m402 -8 c0 -9 -4 -10 -14 -2 -7 6 -13 12 -13 14 0 1 6 2
13 2 8 0 14 -6 14 -14z m240 -5 c2 -17 0 -19 -7 -8 -5 8 -6 18 -4 22 8 12 10
10 11 -14z m-103 -4 c3 -8 2 -12 -4 -9 -6 3 -10 10 -10 16 0 14 7 11 14 -7z
m33 10 c-3 -3 -12 -4 -19 -1 -8 3 -5 6 6 6 11 1 17 -2 13 -5z m233 -14 c0 -5
-5 -10 -11 -10 -5 0 -7 5 -4 10 3 6 8 10 11 10 2 0 4 -4 4 -10z m415 1 c3 -5
2 -12 -3 -15 -5 -3 -9 1 -9 9 0 17 3 19 12 6z m79 -7 c3 -8 2 -12 -4 -9 -6 3
-10 10 -10 16 0 14 7 11 14 -7z m-774 -28 c0 -2 -7 -7 -16 -10 -8 -3 -12 -2
-9 4 6 10 25 14 25 6z m135 -15 c3 -5 2 -12 -3 -15 -5 -3 -9 1 -9 9 0 17 3 19
12 6z m-435 -7 c0 -8 -19 -13 -24 -6 -3 5 1 9 9 9 8 0 15 -2 15 -3z m56 -6 c3
-4 -1 -5 -10 -4 -8 1 -18 5 -22 8 -3 4 1 5 10 4 8 -1 18 -5 22 -8z m304 6 c0
-8 -19 -13 -24 -6 -3 5 1 9 9 9 8 0 15 -2 15 -3z m196 -6 c4 -7 4 -10 -1 -6
-4 4 -15 2 -24 -5 -14 -11 -14 -10 -2 6 16 20 18 21 27 5z m84 8 c0 -3 -4 -8
-10 -11 -5 -3 -10 -1 -10 4 0 6 5 11 10 11 6 0 10 -2 10 -4z m-60 -62 c0 -8
-19 -13 -24 -6 -3 5 1 9 9 9 8 0 15 -2 15 -3z"/>
<path d="M5265 8893 c-16 -3 -33 -10 -37 -16 -6 -9 -8 -9 -8 0 0 14 -80 13
-80 -2 0 -5 -4 -4 -9 4 -7 11 -13 12 -23 4 -7 -6 -23 -9 -36 -7 -13 2 -21 1
-19 -3 3 -5 -14 -9 -36 -9 -100 -4 -229 -23 -222 -33 2 -4 -10 -5 -27 -3 -23
4 -29 2 -23 -8 6 -10 4 -11 -6 -4 -20 12 -38 14 -45 3 -3 -5 -16 -9 -29 -9
-13 0 -27 -5 -30 -10 -4 -6 -10 -8 -15 -5 -5 3 -35 -2 -66 -11 -31 -9 -64 -17
-73 -19 -9 -1 -16 -7 -16 -13 0 -6 -4 -14 -8 -19 -5 -4 -7 -3 -5 4 2 9 -4 15
-14 12 -2 0 -14 -2 -28 -5 -43 -8 -90 -25 -86 -32 2 -4 -6 -8 -17 -8 -12 -1
-31 -4 -42 -7 -11 -3 -26 -6 -34 -6 -9 -1 -11 -9 -8 -23 5 -21 5 -21 -7 -5
-14 18 -32 24 -21 7 3 -5 0 -7 -8 -4 -8 3 -18 1 -22 -5 -3 -6 -13 -11 -22 -11
-9 0 -25 -8 -36 -17 -11 -10 -17 -12 -13 -5 6 9 -3 8 -25 -4 -19 -10 -38 -17
-43 -16 -5 2 -6 -7 -3 -20 5 -19 4 -21 -6 -8 -12 16 -47 16 -47 0 0 -5 -10
-10 -22 -12 -13 -2 -23 -8 -23 -15 0 -6 -4 -15 -9 -20 -5 -5 -6 -3 -2 5 9 15
-20 17 -29 2 -4 -6 -11 -8 -16 -5 -5 4 -9 -2 -9 -12 0 -15 -2 -16 -10 -3 -9
14 -14 7 -11 -13 1 -5 -3 -6 -8 -3 -14 9 -42 -5 -34 -18 3 -6 3 -8 -2 -4 -4 4
-15 2 -23 -5 -13 -10 -15 -9 -8 3 4 9 2 8 -7 -2 -8 -10 -17 -15 -20 -11 -4 3
-7 1 -7 -6 0 -7 -4 -9 -10 -6 -5 3 -10 2 -10 -3 0 -5 -10 -12 -22 -16 -19 -5
-21 -8 -8 -16 8 -5 10 -10 4 -10 -5 0 -15 5 -22 12 -9 9 -12 9 -12 1 0 -7 -9
-14 -19 -18 -10 -3 -31 -18 -47 -33 -15 -15 -24 -22 -21 -15 5 8 1 8 -17 0
-13 -7 -22 -15 -20 -18 2 -4 -4 -9 -14 -11 -31 -9 -37 -12 -62 -35 -14 -13
-31 -23 -39 -23 -8 0 -11 -3 -8 -7 7 -6 -23 -27 -55 -39 -10 -3 -18 -13 -18
-21 0 -8 -4 -11 -10 -8 -5 3 -10 1 -10 -5 0 -6 -4 -8 -10 -5 -5 3 -10 1 -10
-5 0 -5 -16 -18 -35 -27 -19 -9 -32 -20 -29 -25 3 -4 -3 -11 -13 -15 -16 -6
-53 -36 -95 -75 -10 -10 -18 -16 -18 -13 0 3 -24 -19 -54 -49 -30 -30 -57 -51
-60 -48 -3 3 -6 0 -6 -6 0 -6 -13 -24 -30 -40 -17 -17 -30 -29 -30 -26 0 2 -9
-5 -20 -16 -12 -12 -18 -26 -14 -33 4 -7 4 -9 -1 -5 -10 9 -135 -120 -135
-140 0 -8 -6 -12 -14 -9 -10 4 -14 0 -11 -13 3 -13 -1 -17 -11 -13 -9 3 -14 0
-12 -8 2 -8 -3 -13 -10 -11 -8 1 -11 -2 -7 -7 3 -6 -3 -16 -15 -23 -11 -7 -20
-18 -20 -25 0 -7 -5 -13 -12 -13 -6 0 -8 -3 -5 -7 4 -3 -1 -12 -10 -18 -15
-11 -16 -15 -3 -31 13 -17 13 -18 0 -7 -12 9 -19 7 -36 -12 -12 -13 -19 -27
-16 -30 3 -3 0 -5 -6 -5 -7 0 -12 -7 -12 -15 0 -8 -5 -15 -11 -15 -5 0 -8 -4
-5 -9 3 -5 -1 -12 -10 -15 -9 -4 -14 -13 -10 -22 3 -8 2 -12 -4 -9 -6 3 -10 1
-10 -5 0 -6 -5 -8 -11 -4 -8 5 -10 -1 -7 -19 3 -17 1 -24 -8 -20 -6 2 -15 -1
-20 -8 -4 -8 -3 -10 4 -5 8 5 10 2 6 -9 -4 -9 -9 -13 -12 -10 -9 9 -83 -126
-76 -137 4 -7 2 -8 -4 -4 -7 4 -12 1 -12 -7 0 -8 -7 -17 -15 -21 -8 -3 -15
-14 -15 -25 0 -11 -4 -23 -10 -26 -5 -3 -10 -11 -10 -16 0 -6 5 -7 12 -3 7 4
8 3 4 -5 -4 -6 -11 -9 -16 -6 -8 5 -20 -16 -26 -45 -2 -8 -8 -16 -14 -18 -5
-2 -8 -8 -4 -13 3 -5 0 -9 -5 -9 -12 0 -15 -26 -3 -33 4 -2 1 -2 -5 -1 -7 2
-13 -3 -13 -11 0 -8 -4 -15 -10 -15 -5 0 -9 -3 -8 -7 1 -5 -4 -21 -10 -36 -7
-16 -9 -33 -6 -39 4 -6 3 -8 -3 -5 -12 7 -36 -40 -28 -54 4 -5 1 -9 -5 -9 -6
0 -9 -4 -5 -9 3 -5 1 -13 -5 -16 -8 -5 -7 -11 1 -21 10 -12 9 -13 -6 -7 -15 5
-17 3 -12 -11 4 -10 3 -15 -3 -11 -14 9 -12 -28 3 -45 10 -12 9 -12 -5 -1 -15
11 -18 9 -24 -16 -4 -15 -11 -34 -17 -40 -5 -7 -6 -13 -2 -13 4 0 2 -7 -6 -16
-10 -13 -10 -17 2 -25 11 -7 10 -9 -5 -9 -16 0 -17 -2 -5 -17 10 -12 10 -15 1
-9 -8 5 -14 -3 -19 -26 -4 -18 -6 -36 -5 -40 1 -5 -2 -8 -8 -8 -5 0 -7 -7 -4
-15 4 -8 1 -15 -6 -15 -10 0 -10 -3 0 -15 7 -9 10 -18 6 -22 -3 -3 -6 0 -7 8
0 8 -6 -2 -12 -21 -9 -24 -9 -37 -2 -42 7 -5 6 -8 -1 -8 -11 0 -20 -31 -27
-87 -2 -12 -6 -25 -10 -29 -13 -14 -7 -23 10 -17 12 4 10 -1 -7 -16 -14 -12
-18 -19 -10 -15 13 7 13 5 1 -9 -11 -14 -11 -20 -1 -33 8 -8 9 -14 4 -13 -21
4 -26 -2 -13 -18 10 -11 10 -14 2 -9 -8 4 -13 2 -13 -8 0 -8 -3 -23 -6 -33 -5
-15 -4 -15 5 -3 6 8 11 10 11 4 0 -5 -4 -14 -9 -20 -6 -5 -12 -29 -14 -54 -3
-25 -8 -54 -13 -64 -5 -12 -4 -17 3 -13 5 3 10 0 10 -8 0 -8 -4 -15 -8 -15 -9
0 -6 -20 5 -39 6 -9 5 -12 -2 -7 -6 3 -13 2 -17 -4 -3 -5 0 -10 7 -10 8 0 9
-3 3 -8 -11 -8 -18 -69 -14 -114 1 -7 0 -20 -2 -28 -2 -8 1 -14 8 -15 6 0 15
-4 20 -8 4 -5 3 -8 -2 -7 -31 7 -38 0 -19 -21 12 -13 14 -19 5 -17 -10 2 -14
-11 -15 -50 -1 -30 2 -59 6 -65 4 -6 2 -17 -4 -24 -7 -9 -7 -13 2 -13 8 0 9
-4 3 -12 -13 -17 -7 -69 9 -79 8 -6 9 -9 2 -9 -11 0 -11 -25 0 -150 3 -25 5
-47 6 -50 1 -3 1 -13 0 -24 -1 -10 4 -23 12 -27 9 -6 9 -9 1 -9 -7 0 -10 -7
-7 -15 4 -8 11 -12 18 -8 6 4 4 -2 -4 -12 -12 -14 -12 -19 -2 -23 10 -3 10 -7
1 -18 -7 -9 -8 -14 -1 -14 5 0 9 -13 8 -30 -1 -16 2 -30 7 -30 4 0 5 -4 2 -10
-3 -5 -1 -10 6 -10 10 0 10 -3 2 -11 -9 -9 -7 -18 5 -37 10 -15 11 -23 5 -19
-7 5 -13 4 -13 -2 0 -6 4 -11 9 -11 5 0 7 -10 3 -22 -3 -11 -1 -19 4 -16 5 4
10 -12 12 -35 1 -23 6 -44 10 -47 4 -3 7 -12 7 -20 -1 -8 5 -26 13 -39 8 -13
10 -21 4 -17 -7 4 -6 -6 0 -29 6 -19 14 -32 18 -30 4 2 6 -6 5 -19 -2 -14 3
-36 10 -50 8 -14 12 -26 10 -26 -2 0 3 -19 11 -42 9 -24 17 -52 20 -63 2 -11
8 -21 14 -23 6 -2 8 -7 5 -12 -7 -12 21 -61 29 -52 5 4 7 0 6 -8 -5 -32 0 -61
9 -55 6 3 8 -3 6 -14 -2 -11 3 -22 12 -25 9 -4 13 -9 9 -13 -3 -3 2 -15 11
-26 10 -11 13 -18 7 -14 -6 3 1 -18 15 -48 17 -37 31 -53 40 -50 11 4 11 3 1
-9 -10 -13 -6 -24 19 -61 17 -26 26 -43 19 -39 -14 9 10 -26 27 -38 6 -4 6 -8
1 -8 -5 0 -3 -7 4 -15 7 -8 17 -12 24 -8 6 4 5 -1 -3 -10 -11 -14 -11 -18 2
-23 8 -3 18 -16 21 -28 7 -28 41 -68 50 -59 4 4 4 0 1 -9 -3 -8 1 -23 10 -32
9 -9 13 -16 9 -16 -4 0 3 -8 14 -19 12 -10 19 -21 15 -25 -3 -3 -1 -6 6 -6 7
0 9 -4 6 -10 -3 -5 2 -10 11 -10 10 0 14 -3 11 -6 -7 -7 23 -64 34 -64 4 0 9
-9 12 -21 4 -13 10 -18 18 -13 7 4 10 3 5 -4 -3 -6 2 -19 13 -29 10 -10 22
-28 26 -41 6 -20 9 -21 23 -10 9 7 13 9 10 3 -8 -14 10 -58 21 -51 5 3 12 -6
15 -20 6 -21 9 -24 22 -13 12 10 13 9 8 -5 -4 -11 1 -26 14 -39 99 -102 142
-149 142 -157 0 -6 6 -10 14 -10 8 0 17 -7 20 -16 3 -8 11 -12 17 -8 7 4 9 3
6 -3 -10 -15 39 -57 55 -47 10 6 10 4 -1 -9 -13 -17 -6 -23 22 -18 4 0 7 -3 7
-8 0 -6 12 -23 27 -38 14 -15 22 -21 18 -13 -7 12 -6 13 7 3 8 -7 19 -9 24 -5
4 4 2 -2 -6 -13 -8 -11 -11 -17 -7 -14 5 4 18 -3 31 -15 28 -26 58 -50 71 -56
5 -3 22 -18 36 -33 19 -19 29 -24 32 -15 4 9 6 8 6 -3 1 -9 27 -33 58 -55 32
-21 62 -44 66 -51 4 -7 14 -13 21 -13 7 0 23 -9 36 -20 13 -12 29 -18 36 -16
9 3 11 -1 7 -12 -3 -9 -3 -14 1 -10 4 3 16 -2 27 -13 10 -10 29 -19 41 -19 12
0 18 -3 15 -7 -8 -7 39 -33 60 -33 8 0 12 -4 9 -8 -3 -5 10 -15 29 -22 19 -8
35 -17 35 -21 0 -4 7 -10 16 -13 12 -5 14 -3 8 7 -5 7 -2 5 8 -5 9 -10 21 -18
26 -18 6 0 12 -3 14 -7 2 -5 31 -22 65 -39 34 -17 60 -27 56 -22 -3 6 6 2 21
-7 14 -9 32 -15 40 -12 10 4 13 1 10 -8 -6 -14 48 -31 66 -20 6 4 7 -1 3 -11
-4 -11 -3 -15 5 -10 6 3 14 1 17 -5 4 -5 13 -8 20 -5 7 2 16 -3 20 -12 6 -16
7 -16 20 1 11 16 13 16 19 2 4 -11 2 -14 -6 -9 -7 5 -8 3 -4 -5 5 -7 14 -10
22 -7 8 3 14 1 14 -5 0 -6 7 -9 15 -5 8 3 15 1 15 -4 0 -6 8 -10 18 -10 10 0
22 -3 26 -7 3 -4 12 -8 19 -9 28 -4 42 -9 47 -16 3 -3 19 -8 35 -10 17 -2 36
-9 43 -15 7 -7 26 -11 42 -9 16 2 27 -1 24 -5 -8 -14 20 -11 35 4 10 10 11 9
6 -4 -4 -10 -1 -20 6 -25 8 -5 10 -3 4 7 -7 11 -6 12 7 2 8 -7 28 -14 44 -15
16 -1 32 -7 36 -12 4 -6 13 -4 24 5 10 8 15 9 11 3 -8 -13 19 -27 34 -18 5 3
9 0 9 -7 0 -8 5 -7 17 2 11 10 14 10 9 2 -7 -14 1 -16 61 -16 18 0 30 -3 27
-8 -4 -8 27 -12 89 -12 9 0 17 -3 17 -6 0 -12 44 -10 52 2 5 8 8 6 8 -6 0 -15
3 -16 21 -6 16 8 20 8 14 0 -4 -8 4 -10 29 -8 20 2 36 0 36 -5 0 -11 33 -6 42
7 5 6 8 5 8 -4 0 -7 6 -11 15 -7 8 3 15 2 15 -2 0 -4 19 -7 42 -6 24 1 50 -2
59 -7 8 -4 21 -4 29 1 7 4 24 4 37 -1 16 -6 23 -5 23 3 0 9 3 9 12 0 9 -9 15
-9 27 1 12 10 13 9 6 -3 -8 -13 -7 -13 8 -1 10 7 17 9 17 3 0 -12 18 -11 39 3
10 5 16 4 19 -3 2 -8 9 -9 22 -2 13 7 21 7 26 -1 4 -8 9 -7 15 2 6 9 12 10 17
4 10 -13 35 -18 27 -5 -8 13 1 13 26 0 10 -6 19 -7 19 -3 0 4 26 8 58 9 101 2
147 7 161 18 12 9 13 8 7 -3 -7 -11 -5 -11 9 -4 10 6 27 8 38 5 15 -4 18 -2
12 9 -6 10 -5 11 4 3 15 -14 73 -6 64 10 -4 7 -1 6 9 -1 8 -7 18 -10 22 -6 3
4 21 8 39 9 65 5 98 15 91 27 -5 9 -3 8 7 -1 15 -14 33 -16 25 -3 -4 5 3 7 14
4 13 -3 20 0 20 8 0 11 2 11 10 -1 8 -12 10 -12 10 -1 0 8 3 11 7 8 3 -4 13
-1 21 6 13 9 14 9 8 0 -5 -10 -1 -11 19 -3 14 5 40 13 58 16 18 3 37 7 42 8 6
1 16 6 24 10 8 5 26 10 40 12 14 1 26 3 26 4 0 1 11 3 24 6 14 2 30 9 37 15 7
6 18 8 24 4 5 -3 10 -1 10 4 0 6 9 11 21 11 11 0 18 4 14 9 -3 5 0 13 6 17 7
4 9 3 5 -4 -3 -6 -2 -13 4 -17 5 -3 10 -1 10 5 0 6 5 8 10 5 6 -3 10 -2 10 4
0 6 7 8 15 5 8 -4 15 -1 15 6 0 6 5 8 10 5 6 -3 10 -1 10 5 0 6 6 10 13 9 24
-3 38 1 32 10 -3 5 -1 13 5 16 6 4 9 3 8 -2 -2 -4 2 -8 7 -8 6 0 9 4 7 8 -1 5
2 5 8 2 6 -4 28 1 48 11 20 10 39 18 42 19 18 2 70 29 70 37 0 6 7 8 15 4 8
-3 24 5 36 17 12 12 18 16 14 8 -5 -9 -3 -12 6 -9 8 3 13 10 12 16 -2 6 4 9
12 6 8 -4 15 -1 15 6 0 6 5 8 10 5 6 -3 22 2 38 13 15 10 42 25 60 33 17 8 32
18 32 22 0 5 5 5 10 2 6 -3 10 -1 10 5 0 6 5 8 12 4 7 -5 9 -2 5 9 -4 12 -2
14 10 10 10 -4 21 1 30 13 8 10 16 17 19 15 12 -8 94 45 89 57 -3 7 0 10 6 7
6 -4 17 1 25 11 9 11 12 12 8 4 -7 -13 -6 -13 12 0 10 8 22 19 25 23 3 5 10 9
15 10 5 1 8 6 6 10 -1 5 2 6 7 3 5 -4 30 9 54 28 25 19 47 32 50 30 5 -6 21
46 18 59 -1 5 3 6 9 2 7 -4 6 -13 -1 -28 l-12 -22 24 20 c13 11 34 30 46 43
12 12 25 22 28 22 17 -1 18 1 5 11 -12 9 -11 10 7 6 16 -4 24 1 28 14 4 11 11
16 17 13 8 -5 9 -1 5 10 -4 10 -3 15 3 11 10 -6 50 15 50 28 0 4 -6 5 -12 1
-8 -4 -9 -3 -5 2 5 5 15 9 22 9 8 0 35 20 60 44 35 33 43 46 33 53 -10 7 -10
8 2 7 31 -3 42 1 36 16 -3 8 -2 14 2 14 18 -3 32 2 32 12 0 5 -5 7 -12 3 -7
-4 -8 -3 -4 4 4 6 13 9 21 5 8 -3 16 0 16 6 3 26 4 30 13 38 5 5 6 3 2 -4 -12
-22 4 -14 29 13 14 15 22 31 18 37 -3 5 -2 7 4 4 9 -6 53 35 53 49 0 11 28 33
34 27 3 -4 6 1 6 10 0 10 5 17 11 17 6 0 9 7 6 14 -4 11 -1 13 11 9 9 -3 14
-3 10 1 -4 5 5 19 20 33 15 14 27 28 27 32 0 4 15 22 32 41 18 19 33 41 33 48
0 6 3 12 8 12 4 0 18 18 32 40 14 22 28 40 32 40 5 0 8 6 8 14 0 8 3 16 8 18
11 5 52 66 52 78 0 5 5 10 10 10 6 0 10 7 10 15 0 8 5 15 10 15 6 0 10 5 10
11 0 6 9 23 20 39 45 64 229 424 255 500 2 6 23 59 32 80 3 8 7 20 9 25 2 6
15 42 29 80 23 65 61 187 70 228 2 10 7 27 10 37 3 10 8 27 10 37 2 10 12 54
23 99 10 44 18 90 17 102 -1 12 1 22 5 22 3 0 6 8 7 18 3 47 13 130 18 152 15
70 27 522 13 514 -4 -3 -4 6 1 19 6 14 8 27 5 29 -2 3 -6 33 -9 69 -7 99 -15
171 -21 202 -3 16 -7 38 -9 50 -1 12 -6 37 -9 55 -3 17 -8 44 -11 60 -5 26
-10 50 -19 90 -8 32 -27 107 -31 125 -3 9 -7 25 -9 35 -5 21 -64 202 -73 222
-3 8 -7 18 -7 22 -1 3 -4 10 -8 14 -5 4 -8 18 -8 31 0 12 -5 23 -12 23 -6 0
-8 3 -5 6 3 4 1 16 -5 28 -7 11 -13 23 -13 26 -1 9 -39 85 -44 90 -4 3 -6 10
-6 15 -1 16 -28 69 -40 77 -5 4 -7 8 -3 8 21 0 -236 431 -313 524 -5 6 -37 47
-71 91 -35 44 -67 85 -73 92 -175 200 -439 457 -462 449 -7 -3 -10 1 -7 9 3 8
-4 19 -18 26 -13 6 -27 18 -31 25 -4 8 -12 14 -17 14 -9 0 -36 19 -65 48 -8 6
-18 12 -23 12 -6 0 -13 7 -16 16 -3 8 -10 12 -16 9 -5 -3 -10 -1 -10 6 0 7 -3
10 -6 6 -8 -8 -33 16 -27 25 2 4 -3 5 -11 2 -9 -4 -18 0 -22 9 -7 19 -78 67
-99 67 -9 0 -13 5 -10 10 3 6 -1 10 -9 10 -9 0 -16 5 -16 10 0 6 -6 10 -14 10
-7 0 -25 9 -39 20 -14 11 -33 20 -43 20 -9 0 -14 3 -11 6 4 4 -17 19 -46 35
-38 20 -55 24 -65 17 -9 -8 -11 -7 -6 6 4 10 1 16 -9 16 -8 0 -17 3 -19 8 -1
4 -25 17 -53 30 -27 13 -58 28 -68 33 -10 5 -23 7 -29 3 -6 -4 -8 -3 -5 3 4 7
-14 18 -43 29 -28 10 -50 22 -50 28 0 6 -5 5 -12 -2 -9 -9 -14 -7 -23 5 -12
16 -20 20 -60 25 -11 2 -23 7 -26 11 -4 5 -18 10 -32 10 -14 1 -23 5 -21 8 5
9 -44 21 -55 14 -5 -2 -14 2 -21 10 -7 8 -16 12 -21 9 -5 -3 -9 0 -9 5 0 6 -9
11 -21 11 -13 0 -18 -4 -13 -12 4 -8 3 -10 -2 -5 -5 5 -9 13 -9 18 0 5 -3 9
-7 9 -5 0 -13 0 -19 0 -8 0 -7 -6 2 -17 13 -16 12 -17 -3 -4 -10 7 -16 17 -13
21 4 7 -92 34 -109 30 -5 -1 -12 4 -17 11 -6 10 -11 10 -25 -2 -10 -8 -15 -9
-11 -2 4 6 3 14 -3 18 -5 3 -10 0 -10 -7 0 -9 -3 -9 -10 2 -5 8 -10 11 -10 6
0 -4 -11 -1 -25 8 -18 12 -25 13 -25 4 0 -9 -3 -10 -8 -2 -4 6 -21 11 -39 10
-17 -1 -29 3 -25 8 3 5 -2 7 -11 3 -10 -3 -17 -3 -17 2 0 4 -10 7 -22 6 -13
-1 -29 3 -37 9 -12 9 -13 8 -6 -4 7 -13 6 -13 -7 -2 -8 7 -41 13 -72 15 -31 1
-56 6 -56 10 0 4 -10 3 -21 -4 -15 -8 -19 -8 -15 0 7 11 -4 13 -92 15 -23 1
-42 3 -42 6 0 3 -22 6 -50 6 -34 1 -47 -2 -43 -10 5 -8 3 -8 -8 0 -22 17 -72
27 -63 13 5 -8 2 -9 -11 -1 -11 6 -30 6 -47 1 -17 -5 -26 -4 -23 2 4 5 -1 9
-10 9 -10 0 -13 -5 -9 -12 5 -7 3 -8 -7 -2 -19 11 -60 12 -83 1 -13 -6 -16 -6
-12 2 8 13 -21 10 -43 -3 -10 -6 -12 -5 -7 2 10 16 -7 15 -23 0 -11 -10 -13
-10 -7 0 4 6 6 11 4 11 -2 -1 -16 -4 -33 -6z m25 -53 c0 -5 -2 -10 -4 -10 -3
0 -8 5 -11 10 -3 6 -1 10 4 10 6 0 11 -4 11 -10z m535 -28 c-3 -3 -11 0 -18 7
-9 10 -8 11 6 5 10 -3 15 -9 12 -12z m-1295 -107 c0 -7 -30 -13 -34 -7 -3 4 4
9 15 9 10 1 19 0 19 -2z m1235 -9 c108 -9 130 -12 144 -21 5 -3 12 -1 16 5 4
6 12 7 18 3 13 -8 20 -9 82 -17 22 -2 40 -5 40 -6 0 -1 14 -3 30 -4 17 -1 36
-5 43 -10 7 -4 29 -9 50 -12 20 -2 48 -7 62 -11 14 -3 31 -7 39 -9 8 -2 26 -6
40 -10 14 -4 29 -8 34 -9 4 -2 9 -4 12 -5 7 -4 16 -6 60 -15 22 -4 45 -11 50
-15 6 -4 18 -6 28 -5 9 2 17 -2 17 -8 0 -5 3 -7 7 -4 3 4 13 1 21 -6 10 -7 13
-8 9 -1 -4 7 10 3 30 -7 21 -11 42 -19 49 -19 6 0 37 -11 68 -25 31 -14 56
-22 56 -20 0 3 10 -1 23 -9 12 -8 27 -16 32 -17 17 -3 57 -19 115 -46 30 -14
61 -26 68 -26 6 0 12 -7 12 -15 0 -9 3 -12 6 -9 4 4 50 -16 103 -44 53 -28
108 -58 123 -66 15 -8 30 -19 33 -24 4 -5 11 -7 16 -4 5 4 9 1 9 -5 0 -6 5 -8
10 -5 6 3 10 2 10 -2 0 -5 37 -33 83 -62 73 -49 234 -166 247 -180 3 -3 39
-35 80 -71 118 -102 234 -221 358 -367 10 -12 27 -34 38 -48 10 -15 27 -36 37
-47 9 -12 17 -25 17 -30 0 -5 5 -6 12 -2 8 5 9 2 5 -9 -4 -10 -2 -16 5 -14 7
1 12 -2 13 -8 2 -21 26 -55 36 -50 5 4 9 -3 9 -14 0 -12 5 -21 11 -21 5 0 7
-4 4 -10 -3 -5 -3 -10 2 -10 4 0 22 -23 38 -51 17 -28 40 -68 53 -88 13 -20
25 -44 29 -53 3 -10 9 -16 12 -13 4 2 8 -2 8 -9 0 -26 68 -146 83 -147 10 0
11 -2 3 -6 -9 -3 -7 -14 7 -41 11 -20 20 -41 20 -46 0 -5 8 -15 18 -23 10 -9
11 -12 2 -7 -12 6 -13 4 -2 -7 6 -7 12 -21 12 -31 0 -10 5 -18 10 -18 6 0 10
-11 10 -25 0 -14 5 -25 12 -25 6 0 8 -3 5 -6 -3 -4 -1 -16 5 -28 7 -11 13 -27
14 -35 2 -8 7 -17 12 -20 5 -3 8 -14 6 -23 -1 -10 2 -18 7 -18 6 0 8 -4 4 -9
-3 -5 -1 -12 5 -16 6 -4 8 -10 5 -15 -3 -5 0 -20 7 -32 14 -26 15 -30 17 -59
0 -11 5 -18 10 -15 5 4 7 -3 4 -14 -3 -11 0 -20 6 -20 5 0 8 -7 5 -15 -4 -8
-2 -21 4 -28 5 -6 8 -20 7 -29 -2 -10 1 -18 6 -18 4 0 6 -7 3 -15 -4 -8 -2
-15 3 -15 5 0 9 -8 10 -17 3 -43 8 -63 14 -63 4 0 6 -8 5 -17 -2 -10 1 -31 5
-47 5 -16 11 -52 14 -80 3 -27 11 -57 18 -65 10 -12 9 -13 -2 -6 -10 6 -12 4
-6 -5 5 -8 10 -34 11 -59 2 -26 6 -66 10 -91 4 -25 8 -55 8 -67 1 -12 4 -25 8
-29 4 -4 5 -12 1 -17 -9 -15 -10 -57 -2 -57 8 0 6 -20 -3 -36 -4 -6 -1 -23 7
-38 8 -14 10 -24 6 -21 -13 8 -11 -68 2 -84 9 -12 9 -13 0 -7 -9 5 -13 -1 -13
-18 0 -14 6 -26 13 -27 10 0 10 -2 0 -6 -17 -6 -17 -65 0 -82 10 -10 9 -11 -3
-6 -13 4 -15 -2 -14 -35 0 -22 4 -43 7 -47 4 -3 3 -11 0 -17 -12 -18 -24 -108
-27 -198 0 -25 -4 -44 -8 -42 -4 3 -7 -4 -7 -13 -1 -31 -9 -80 -16 -103 -5
-17 -4 -21 6 -16 8 4 5 0 -5 -8 -18 -14 -15 -21 7 -17 5 1 6 -3 2 -9 -3 -6
-11 -8 -16 -5 -9 6 -10 3 -13 -32 -1 -10 -5 -24 -10 -31 -4 -7 -6 -16 -3 -18
3 -3 1 -20 -5 -37 -5 -18 -10 -36 -11 -42 -2 -5 -5 -14 -8 -20 -3 -5 -5 -17
-4 -25 0 -8 -2 -17 -6 -20 -3 -3 -9 -18 -13 -33 -5 -22 -4 -27 6 -22 7 4 4 -1
-6 -9 -11 -9 -17 -16 -13 -16 4 0 1 -13 -8 -30 -18 -35 -19 -43 -2 -35 6 4 4
0 -5 -8 -10 -8 -18 -20 -18 -28 0 -8 -7 -27 -15 -43 -9 -16 -14 -31 -11 -33 2
-2 -7 -25 -19 -51 -16 -34 -20 -51 -13 -60 8 -9 7 -11 -5 -6 -12 4 -17 -3 -23
-30 -3 -20 -10 -36 -15 -36 -5 0 -9 -7 -9 -15 0 -8 -6 -15 -12 -15 -9 0 -8 -4
2 -10 10 -6 11 -10 3 -10 -7 0 -13 -7 -13 -15 0 -8 -4 -15 -10 -15 -5 0 -10
-9 -10 -20 0 -11 -4 -20 -10 -20 -5 0 -10 -9 -10 -19 0 -11 -3 -21 -7 -23 -5
-1 -20 -28 -36 -58 -15 -31 -43 -79 -62 -108 -18 -29 -31 -52 -27 -52 4 0 3
-4 -3 -8 -5 -4 -32 -41 -60 -82 -27 -41 -53 -79 -57 -85 -76 -99 -94 -122
-103 -131 -5 -6 -30 -35 -55 -63 -78 -91 -235 -245 -332 -326 -51 -42 -103
-86 -116 -96 -12 -10 -24 -19 -27 -19 -3 1 -12 -5 -19 -12 -27 -25 -53 -45
-84 -64 -18 -10 -32 -22 -32 -27 0 -4 -4 -6 -9 -3 -5 3 -15 -1 -22 -10 -7 -8
-30 -24 -51 -35 -21 -11 -38 -23 -38 -27 0 -4 -16 -14 -35 -21 -19 -7 -35 -17
-35 -22 0 -6 -4 -7 -10 -4 -5 3 -10 2 -10 -4 0 -6 -11 -13 -25 -17 -14 -3 -25
-10 -25 -14 0 -4 -11 -11 -25 -14 -14 -4 -25 -11 -25 -17 0 -6 -5 -7 -10 -4
-6 3 -13 -1 -16 -9 -3 -9 -10 -13 -15 -10 -6 3 -16 0 -24 -6 -8 -7 -15 -9 -15
-4 0 5 -4 4 -8 -2 -8 -12 -97 -56 -108 -54 -4 1 -10 -3 -14 -10 -4 -6 -13 -13
-21 -14 -41 -8 -69 -19 -69 -27 0 -5 -3 -8 -7 -7 -15 3 -63 -14 -58 -21 2 -4
-1 -8 -8 -9 -42 -3 -57 -7 -57 -15 0 -4 -4 -5 -10 -2 -5 3 -10 1 -10 -6 0 -7
-3 -10 -6 -6 -4 3 -22 0 -40 -8 -19 -8 -34 -12 -34 -9 0 2 -15 -3 -32 -12 -18
-10 -45 -19 -61 -21 -15 -1 -44 -10 -64 -18 -20 -8 -38 -13 -41 -10 -3 3 -11
0 -19 -6 -7 -6 -13 -9 -13 -6 0 4 -18 0 -40 -8 -22 -8 -40 -11 -40 -8 0 4 -5
2 -11 -4 -6 -6 -18 -9 -25 -6 -8 3 -14 1 -14 -4 0 -5 -10 -9 -22 -10 -13 0
-36 -3 -53 -7 -16 -3 -46 -9 -65 -12 -19 -3 -44 -8 -55 -11 -22 -7 -49 -10
-140 -17 -33 -3 -61 -6 -62 -6 -2 0 -6 0 -9 1 -4 0 -11 -5 -15 -13 -6 -8 -9
-9 -9 -2 0 8 -11 9 -34 4 -19 -4 -37 -5 -40 -2 -3 2 -12 0 -19 -6 -8 -7 -17
-9 -21 -5 -10 10 -48 14 -42 5 3 -5 -1 -9 -9 -9 -8 0 -15 4 -15 8 0 5 -7 6
-16 2 -19 -7 -334 -10 -334 -3 0 10 -55 6 -62 -5 -5 -7 -8 -6 -8 1 0 6 -21 12
-46 13 -26 0 -50 4 -56 7 -5 3 -16 0 -25 -8 -9 -7 -14 -8 -10 -2 8 14 -14 20
-66 20 -20 -1 -37 2 -37 5 0 3 -20 5 -44 4 -25 0 -42 3 -40 7 3 4 -12 9 -33
10 -35 1 -51 3 -63 8 -14 5 -58 12 -77 13 -13 1 -23 4 -23 7 0 6 -8 8 -47 11
-10 1 -22 5 -28 9 -5 4 -18 6 -27 5 -10 -2 -18 0 -18 5 0 4 -8 7 -17 7 -10 -1
-65 14 -123 32 -58 19 -112 34 -120 35 -8 0 -18 5 -21 9 -3 5 -12 9 -20 10 -8
2 -20 6 -27 11 -7 4 -16 6 -19 2 -3 -3 -12 2 -20 10 -8 8 -19 12 -24 9 -5 -4
-9 -1 -9 5 0 7 -7 10 -15 6 -8 -3 -21 2 -30 10 -8 8 -19 12 -25 9 -5 -3 -10
-1 -10 4 0 6 -5 11 -11 11 -22 0 -285 126 -308 148 -7 7 -20 11 -28 8 -8 -3
-12 -2 -9 2 5 8 -56 43 -71 41 -3 0 -10 6 -15 15 -5 9 -16 16 -23 16 -8 0 -15
5 -15 10 0 6 -7 10 -15 10 -8 0 -15 5 -15 10 0 6 -6 10 -14 10 -8 0 -21 6 -28
13 -7 7 -28 22 -45 32 -18 11 -33 23 -33 27 0 4 -6 8 -13 8 -7 0 -24 11 -39
25 -15 13 -32 26 -40 27 -7 2 -21 13 -31 26 -10 12 -23 22 -29 22 -5 0 -23 14
-38 30 -15 17 -31 30 -34 30 -22 0 -406 376 -406 397 0 3 -10 16 -22 28 -39
39 -78 85 -78 93 0 4 -15 25 -34 47 -19 22 -32 44 -29 49 3 5 1 6 -5 2 -6 -3
-16 3 -22 14 -6 11 -7 20 -3 20 4 0 3 4 -4 8 -15 10 -63 80 -63 92 0 6 -4 10
-9 10 -5 0 -14 14 -21 30 -7 17 -16 30 -21 30 -5 0 -9 7 -9 15 0 8 -5 15 -11
15 -5 0 -8 4 -4 9 3 5 -2 16 -10 24 -8 9 -15 20 -15 25 0 6 -3 12 -8 14 -8 3
-92 172 -92 184 0 4 -10 19 -23 32 -12 14 -16 22 -9 18 11 -6 11 -4 3 10 -21
37 -71 155 -71 167 0 7 -6 22 -14 32 -8 11 -12 25 -9 32 3 7 0 13 -6 13 -6 0
-11 9 -11 19 0 11 -5 23 -10 26 -6 4 -8 10 -5 15 3 5 -1 26 -10 46 -8 20 -15
47 -15 60 0 13 -5 24 -11 24 -6 0 -9 7 -5 15 3 8 1 15 -5 15 -6 0 -8 4 -5 8 2
4 -4 39 -14 77 -10 39 -21 84 -24 100 -2 17 -5 30 -6 30 -1 0 -4 18 -6 40 -3
22 -10 43 -17 47 -9 6 -9 8 1 8 8 0 10 5 5 13 -4 6 -9 23 -10 37 -2 14 -5 39
-8 55 -2 17 -7 70 -10 120 -4 51 -12 93 -18 97 -9 6 -9 8 -1 8 13 0 13 77 1
97 -4 7 -3 14 2 18 6 3 7 16 3 28 -4 12 -6 36 -5 52 1 17 5 80 8 140 6 110 12
190 15 190 1 0 3 20 5 45 1 25 3 45 5 45 1 0 3 14 5 30 2 17 6 41 9 55 2 14
10 52 16 85 17 82 18 90 20 90 1 0 4 11 6 25 3 14 9 43 15 65 6 22 12 47 14
55 2 8 8 27 13 41 6 15 8 30 5 33 -4 3 -1 6 4 6 6 0 10 8 9 18 -2 9 1 20 6 23
6 4 11 18 11 33 1 14 6 26 11 26 4 0 6 9 3 20 -3 11 -1 18 4 14 5 -3 9 3 9 14
0 10 3 22 7 26 5 4 8 11 9 14 0 4 7 23 15 42 9 19 19 47 22 62 4 15 13 33 20
40 8 7 13 21 11 31 -1 9 1 17 6 17 4 0 18 25 30 55 12 30 26 55 31 55 5 0 9 3
8 8 -2 15 14 52 22 52 5 0 8 3 7 8 -3 12 25 62 34 62 5 0 7 4 4 9 -3 5 2 19
12 32 10 13 35 53 57 89 21 36 42 67 47 68 4 2 8 8 8 14 0 5 7 16 15 25 8 8
12 20 8 26 -3 7 -3 9 2 5 5 -5 20 9 33 30 14 20 28 39 31 42 3 3 17 21 30 40
13 19 30 42 37 50 71 81 83 98 76 104 -4 4 -2 6 3 4 6 -1 22 10 37 25 15 15
25 27 23 27 -3 0 17 21 43 47 26 26 46 51 44 55 -1 5 3 8 8 8 6 0 28 17 48 38
21 20 58 55 82 77 25 22 44 43 42 47 -1 5 2 7 7 6 5 -2 24 11 44 29 19 17 38
29 41 26 3 -4 6 -2 6 4 0 11 248 199 259 196 3 -1 10 5 14 13 4 8 14 14 22 14
7 0 20 6 27 13 7 7 33 24 58 38 25 13 51 30 58 37 7 6 18 12 24 12 6 0 17 8
25 18 9 10 11 11 7 2 -6 -13 -4 -12 12 1 10 9 36 23 57 33 20 9 37 21 37 27 0
6 4 8 9 4 5 -3 29 5 53 19 24 13 46 24 50 25 24 4 37 14 31 24 -3 6 -1 7 5 3
7 -4 18 -4 25 1 6 4 18 8 26 10 8 1 17 5 20 10 3 4 11 8 16 9 24 3 55 17 55
26 0 5 4 6 10 3 5 -3 22 1 38 9 16 8 32 12 36 9 3 -4 6 -1 6 6 0 7 4 10 9 6 5
-3 13 0 16 6 4 5 13 8 21 5 8 -3 14 0 14 6 0 6 3 9 6 5 3 -3 26 3 50 13 24 11
44 17 44 13 0 -3 6 -1 13 5 6 6 15 10 20 11 27 1 77 14 77 20 0 4 8 7 18 8 36
1 98 15 122 26 14 7 37 12 53 12 15 -1 27 2 27 6 0 4 8 6 18 4 9 -1 26 1 37 5
11 4 39 10 63 14 23 3 61 9 85 13 23 3 52 6 65 7 12 0 22 4 22 8 0 5 8 4 19
-1 10 -6 21 -7 25 -4 7 7 42 12 123 17 29 1 55 4 57 7 7 7 394 3 501 -5z
m1002 -71 c0 -8 -4 -12 -9 -9 -5 3 -6 10 -3 15 9 13 12 11 12 -6z m234 -118
c-10 -9 -11 -8 -5 6 3 10 9 15 12 12 3 -3 0 -11 -7 -18z m159 -63 c0 -8 -19
-13 -24 -6 -3 5 1 9 9 9 8 0 15 -2 15 -3z m-4713 -1229 c0 -8 -4 -12 -9 -9 -5
3 -6 10 -3 15 9 13 12 11 12 -6z m-322 -684 c3 -5 2 -12 -3 -15 -5 -3 -9 1 -9
9 0 17 3 19 12 6z m18 -2236 c-3 -9 -8 -14 -10 -11 -3 3 -2 9 2 15 9 16 15 13
8 -4z m322 -564 c3 -5 2 -12 -3 -15 -5 -3 -9 1 -9 9 0 17 3 19 12 6z m225
-315 c0 -2 -8 -10 -17 -17 -16 -13 -17 -12 -4 4 13 16 21 21 21 13z m295 -424
c-3 -3 -11 0 -18 7 -9 10 -8 11 6 5 10 -3 15 -9 12 -12z m4830 -71 c3 -5 2
-12 -3 -15 -5 -3 -9 1 -9 9 0 17 3 19 12 6z m-4650 -89 c-3 -3 -11 0 -18 7 -9
10 -8 11 6 5 10 -3 15 -9 12 -12z m78 -57 c-3 -9 -8 -14 -10 -11 -3 3 -2 9 2
15 9 16 15 13 8 -4z m201 -93 c3 -5 -1 -9 -9 -9 -8 0 -12 4 -9 9 3 4 7 8 9 8
2 0 6 -4 9 -8z m421 -302 c3 -5 1 -10 -4 -10 -6 0 -11 5 -11 10 0 6 2 10 4 10
3 0 8 -4 11 -10z m600 -129 c3 -5 2 -12 -3 -15 -5 -3 -9 1 -9 9 0 17 3 19 12
6z m-75 -31 c0 -5 -5 -10 -11 -10 -5 0 -7 5 -4 10 3 6 8 10 11 10 2 0 4 -4 4
-10z m120 6 c0 -2 -7 -7 -16 -10 -8 -3 -12 -2 -9 4 6 10 25 14 25 6z m-60 -20
c0 -2 -7 -7 -16 -10 -8 -3 -12 -2 -9 4 6 10 25 14 25 6z m120 -6 c0 -5 -5 -10
-11 -10 -5 0 -7 5 -4 10 3 6 8 10 11 10 2 0 4 -4 4 -10z m100 -20 c0 -5 -2
-10 -4 -10 -3 0 -8 5 -11 10 -3 6 -1 10 4 10 6 0 11 -4 11 -10z m200 -34 c0
-3 -4 -8 -10 -11 -5 -3 -10 -1 -10 4 0 6 5 11 10 11 6 0 10 -2 10 -4z m55 -26
c3 -5 1 -10 -4 -10 -6 0 -11 5 -11 10 0 6 2 10 4 10 3 0 8 -4 11 -10z m762
-85 c0 -8 -4 -12 -9 -9 -5 3 -6 10 -3 15 9 13 12 11 12 -6z m-377 -11 c0 -8
-19 -13 -24 -6 -3 5 1 9 9 9 8 0 15 -2 15 -3z"/>
<path d="M6407 7472 l-29 -4 6 -116 c16 -296 16 -295 55 -285 14 3 17 15 17
54 -1 27 -5 49 -9 49 -4 0 -3 10 4 21 8 15 8 19 0 15 -6 -4 -11 -3 -11 3 0 6
12 14 27 17 19 5 30 2 40 -12 7 -10 20 -27 28 -37 8 -9 15 -22 15 -28 0 -6 7
-9 14 -6 10 4 13 1 10 -7 -3 -8 7 -24 23 -36 15 -12 27 -25 26 -28 -2 -4 0 -7
5 -7 4 0 13 -4 20 -8 11 -7 15 -3 14 13 0 3 9 7 20 7 11 1 23 4 26 7 9 9 -56
69 -67 62 -6 -4 -9 -1 -6 6 3 8 -10 32 -30 53 -39 45 -41 50 -20 59 22 8 55
67 55 99 0 37 -25 83 -53 99 -21 11 -121 17 -180 10z m112 -56 c12 -9 13 -8 6
4 -7 12 -6 13 7 3 8 -7 17 -10 20 -7 3 3 5 -3 5 -13 -1 -10 4 -17 11 -15 15 3
16 -28 0 -65 -6 -15 -10 -32 -9 -36 1 -5 -3 -6 -9 -2 -5 3 -10 2 -10 -2 0 -5
-12 -10 -26 -11 -15 -1 -34 -8 -42 -15 -11 -8 -13 -8 -9 0 4 6 2 13 -4 15 -11
4 -21 45 -19 78 0 8 0 26 0 39 0 12 3 27 6 32 7 12 55 8 73 -5z m52 -213 c13
-16 12 -17 -3 -4 -10 7 -18 15 -18 17 0 8 8 3 21 -13z"/>
<path d="M6070 7450 l-45 -5 4 -60 c2 -33 4 -72 5 -87 2 -16 3 -44 4 -64 1
-25 6 -33 15 -28 10 6 10 4 0 -7 -16 -16 -17 -43 -2 -33 8 4 8 1 1 -12 -15
-28 -15 -36 0 -45 7 -5 8 -9 2 -9 -16 0 -5 -47 12 -54 8 -3 21 -3 30 1 12 5
14 18 9 77 -6 63 -4 74 13 89 15 14 22 15 28 6 4 -8 3 -10 -4 -5 -7 4 -12 3
-12 -3 0 -6 9 -15 20 -21 11 -6 20 -15 20 -20 0 -17 49 -59 54 -47 2 7 5 2 5
-10 1 -12 10 -28 21 -36 11 -8 17 -17 12 -21 -4 -4 -2 -7 3 -6 18 4 35 0 34
-7 -3 -21 3 -24 18 -12 11 10 14 10 9 2 -8 -15 -5 -16 18 -7 14 5 14 9 4 22
-10 12 -10 14 -1 8 24 -14 1 28 -38 69 -75 80 -89 96 -89 103 0 4 14 20 30 36
17 16 31 39 31 50 8 119 -48 155 -211 136z m141 -68 c15 -17 18 -30 14 -55
-10 -49 -27 -65 -77 -72 -38 -5 -46 -4 -50 12 -7 28 -10 122 -3 132 11 18 94
6 116 -17z"/>
<path d="M5767 7434 c-1 -2 -22 -4 -45 -5 l-43 -3 2 -65 c1 -37 6 -74 11 -83
5 -11 5 -18 -1 -18 -6 0 -8 -6 -6 -12 10 -29 11 -108 1 -112 -7 -3 -6 -5 1 -5
7 -1 10 -8 7 -16 -4 -8 -3 -23 1 -32 13 -30 14 -43 3 -50 -7 -4 -8 -1 -3 7 5
9 4 11 -4 6 -19 -12 -4 -22 31 -22 l33 1 -2 76 c-2 63 0 78 13 83 18 7 82 -41
83 -61 1 -7 8 -13 17 -13 8 0 13 -3 10 -8 -8 -13 22 -45 35 -36 8 4 10 3 5 -4
-4 -7 -2 -12 3 -12 6 0 10 -5 9 -12 -4 -17 44 -16 64 1 16 13 13 19 -38 71
-30 31 -61 65 -69 77 -14 20 -13 23 10 41 28 22 45 60 40 88 -2 11 -4 29 -4
41 -1 34 -58 72 -114 76 -26 2 -49 2 -50 1z m82 -67 c4 1 13 -7 20 -19 7 -11
8 -17 2 -13 -10 5 -16 -14 -12 -37 0 -5 -3 -8 -8 -8 -6 0 -8 -9 -6 -21 4 -17
2 -19 -10 -9 -11 10 -15 10 -15 1 0 -7 -4 -10 -9 -6 -5 3 -16 -1 -24 -10 -13
-13 -16 -13 -21 1 -3 8 -9 13 -13 11 -5 -3 -9 24 -11 59 -2 46 1 64 10 65 25
1 50 8 56 14 4 3 13 -2 20 -12 7 -10 17 -17 21 -16z m-29 -187 c0 -5 -2 -10
-4 -10 -3 0 -8 5 -11 10 -3 6 -1 10 4 10 6 0 11 -4 11 -10z"/>
<path d="M5494 7330 c-38 -49 -72 -90 -76 -90 -4 0 -8 37 -10 82 -3 75 -5 81
-25 84 -12 2 -25 -1 -29 -7 -11 -19 -12 -79 -1 -72 6 3 7 1 3 -6 -4 -6 -2 -19
6 -28 11 -14 11 -16 -1 -8 -11 6 -13 4 -8 -8 4 -10 1 -17 -6 -17 -8 0 -8 -3 2
-9 11 -7 11 -9 0 -14 -12 -5 -12 -6 0 -6 10 -1 11 -4 2 -15 -9 -10 -8 -15 4
-20 8 -3 15 -11 15 -18 0 -9 -3 -8 -10 2 -8 12 -10 9 -10 -13 0 -19 4 -26 13
-22 6 4 4 0 -5 -8 -10 -8 -15 -16 -12 -20 3 -3 6 -26 7 -51 1 -39 5 -47 28
-57 42 -17 52 -4 46 60 -3 31 -6 62 -8 69 -2 8 6 21 19 29 20 14 22 14 16 -1
-3 -9 -1 -16 5 -16 6 0 21 -11 33 -25 11 -13 25 -22 30 -19 5 3 7 0 6 -8 -2
-7 3 -12 10 -10 8 1 11 -2 8 -7 -8 -12 34 -42 47 -34 6 3 7 1 3 -6 -4 -6 -13
-9 -19 -5 -7 3 1 -6 18 -20 19 -16 32 -21 36 -14 4 6 12 14 19 18 12 7 -2 25
-131 168 -22 23 -39 45 -39 47 0 3 21 29 48 58 111 125 112 127 69 127 -31 0
-40 -8 -103 -90z"/>
<path d="M7352 7392 c-6 -2 -9 -9 -5 -15 4 -7 0 -7 -9 1 -13 11 -21 11 -39 2
-14 -8 -19 -8 -15 -1 5 7 -3 9 -26 4 -18 -4 -50 -7 -70 -7 -21 0 -38 -3 -38
-6 0 -3 -18 -4 -40 -2 -30 3 -47 -1 -63 -14 -21 -19 -21 -19 -7 0 14 18 13 19
-5 12 -10 -4 -59 -9 -107 -12 -96 -5 -135 -16 -144 -39 -3 -8 -10 -13 -15 -10
-4 3 -6 -4 -4 -15 2 -11 -1 -20 -7 -20 -6 0 -5 -7 3 -17 11 -13 11 -15 1 -9
-10 6 -9 -1 3 -24 10 -20 22 -30 31 -26 7 3 13 0 11 -7 -1 -6 8 -13 21 -15 13
-2 22 2 22 10 0 10 3 9 10 -2 7 -12 12 -12 22 -2 6 6 17 12 22 12 6 0 4 -5 -4
-10 -12 -8 -11 -10 7 -10 12 0 25 5 29 11 4 8 9 7 15 -2 5 -8 9 -9 9 -3 0 5
14 9 30 8 17 -1 33 2 36 7 3 6 11 6 17 1 7 -4 18 -7 25 -6 6 1 26 2 43 3 17 0
28 5 24 11 -3 6 -2 10 4 10 5 0 12 -6 14 -12 4 -10 8 -9 16 2 6 8 11 10 11 4
0 -6 12 -10 28 -8 15 1 27 3 27 4 0 1 12 3 28 4 27 3 27 2 28 -58 1 -34 1 -67
0 -75 -2 -8 3 -10 11 -6 10 6 11 5 1 -6 -7 -7 -13 -17 -13 -22 0 -4 6 -5 13
-1 9 6 9 4 1 -7 -6 -8 -9 -39 -8 -69 7 -198 7 -212 -5 -219 -6 -4 -35 -4 -64
-1 -28 4 -62 4 -74 -1 -15 -5 -23 -5 -23 2 0 6 -5 7 -11 3 -9 -5 -125 -10
-302 -13 -28 -1 -36 -4 -31 -13 6 -10 4 -10 -7 0 -17 15 -43 16 -33 0 5 -7 3
-8 -7 -2 -20 12 -81 16 -74 4 3 -6 1 -10 -4 -10 -6 0 -11 5 -11 11 0 8 -6 7
-17 -2 -14 -12 -15 -12 -9 -1 7 11 4 12 -13 3 -11 -7 -21 -8 -21 -4 0 4 -17 7
-37 6 -21 -1 -38 -2 -38 -3 0 -2 -139 -8 -255 -10 -52 -1 -103 -6 -112 -11
-11 -6 -18 -6 -18 -1 0 5 -26 8 -57 5 -32 -2 -79 -4 -105 -5 -30 -1 -45 -6
-40 -12 4 -8 2 -8 -9 0 -19 14 -83 11 -103 -5 -14 -12 -16 -11 -10 5 5 18 5
18 -9 1 -12 -14 -16 -15 -20 -4 -6 16 -68 11 -79 -7 -5 -8 -8 -7 -8 2 0 6 -5
12 -11 12 -5 0 -7 -6 -3 -12 5 -9 2 -9 -9 1 -14 11 -20 11 -33 0 -9 -8 -18 -9
-22 -3 -8 11 -42 12 -59 1 -8 -5 -13 -4 -13 3 0 7 -6 8 -18 1 -13 -7 -23 -6
-30 1 -7 7 -12 8 -12 2 0 -5 -18 -8 -41 -6 -33 4 -40 2 -33 -9 7 -12 5 -12 -9
0 -14 11 -17 11 -17 0 0 -9 -3 -10 -8 -4 -10 13 -62 14 -62 1 0 -7 -3 -8 -8
-1 -10 14 -56 12 -65 -3 -6 -9 -12 -10 -21 -2 -15 11 -43 10 -65 -4 -9 -6 -12
-5 -8 2 8 12 -61 11 -81 -2 -7 -4 -12 -2 -12 5 0 8 -4 8 -15 -1 -11 -9 -15 -9
-15 -1 0 7 -5 9 -12 4 -7 -4 -21 -6 -31 -4 -10 1 -24 -3 -30 -11 -7 -7 -11
-11 -10 -9 1 2 -2 11 -7 21 -10 18 -20 61 -24 97 -1 12 -5 25 -9 29 -4 4 -7
20 -7 36 0 16 -4 27 -9 24 -5 -4 -7 4 -3 16 3 12 1 19 -4 15 -5 -3 -9 12 -8
34 0 21 -2 39 -5 39 -4 0 -8 11 -9 25 -1 21 4 25 36 32 20 4 40 8 45 9 4 1 19
2 33 3 14 0 23 4 21 9 -3 4 16 8 41 9 72 3 106 8 120 17 7 4 16 6 19 2 9 -9
35 23 27 35 -4 7 -3 9 3 6 6 -4 14 0 17 9 9 24 7 56 -3 50 -5 -4 -7 3 -4 13 5
21 -39 57 -57 46 -5 -3 -10 -2 -10 3 0 12 -70 5 -88 -10 -12 -10 -14 -10 -8 0
4 6 2 12 -3 12 -6 0 -11 -4 -11 -10 0 -5 -7 -7 -15 -4 -8 4 -23 0 -32 -7 -14
-12 -16 -12 -8 1 6 12 5 12 -5 3 -7 -6 -19 -9 -28 -6 -8 4 -13 2 -10 -3 4 -5
-18 -9 -49 -8 -39 0 -57 -4 -60 -14 -5 -11 -7 -11 -14 -1 -6 10 -13 9 -30 -6
-12 -11 -19 -14 -15 -7 4 6 3 12 -1 12 -5 0 -15 -6 -22 -12 -9 -9 -12 -9 -7
-1 4 7 -8 6 -34 -4 -32 -13 -38 -19 -29 -30 10 -11 8 -12 -6 -7 -13 5 -16 4
-11 -4 4 -7 2 -12 -3 -12 -6 0 -11 -5 -11 -11 0 -5 5 -7 12 -3 7 5 8 3 2 -7
-9 -16 -6 -49 6 -64 5 -5 11 -30 15 -55 4 -24 11 -52 16 -61 5 -10 6 -25 2
-35 -5 -13 -3 -15 7 -9 10 6 12 4 7 -8 -4 -10 -1 -17 6 -17 8 0 8 -3 -2 -9
-10 -6 -10 -10 -1 -13 7 -2 14 -22 15 -43 3 -35 9 -69 15 -85 1 -3 2 -8 2 -11
-1 -3 5 -28 12 -56 11 -41 11 -53 0 -68 -7 -10 -11 -22 -7 -28 3 -6 1 -7 -6
-3 -11 7 -37 -13 -122 -96 -22 -21 -39 -35 -39 -31 0 4 -8 -4 -17 -17 -10 -14
-17 -29 -15 -33 1 -5 -2 -5 -8 -2 -6 4 -23 -6 -37 -22 -15 -15 -29 -28 -32
-28 -10 0 -51 -45 -51 -56 0 -5 -4 -8 -8 -5 -5 3 -33 -18 -62 -47 -30 -29 -58
-51 -62 -49 -4 1 -8 -5 -8 -13 0 -8 -4 -15 -8 -15 -5 0 -20 -9 -33 -21 -18
-15 -20 -22 -10 -28 10 -6 9 -10 -4 -14 -9 -4 -13 -3 -10 3 3 6 2 10 -4 10 -5
0 -15 -8 -20 -17 -6 -10 -11 -14 -11 -10 0 4 -6 2 -14 -5 -8 -8 -11 -17 -5
-24 6 -7 1 -10 -14 -10 -15 1 -21 -4 -19 -14 2 -8 0 -12 -4 -7 -8 8 -44 -21
-44 -36 0 -5 8 -3 18 4 15 13 16 12 4 -2 -7 -10 -21 -15 -32 -12 -11 3 -20 0
-20 -6 0 -20 -20 -12 -77 34 -31 24 -59 42 -61 40 -3 -2 -11 3 -19 11 -9 8
-22 13 -29 10 -8 -3 -13 0 -11 6 3 15 -25 17 -36 3 -5 -5 -6 0 -2 12 5 18 3
21 -14 18 -11 -2 -20 0 -18 5 1 4 -2 9 -8 10 -5 1 -32 11 -58 21 -27 11 -53
16 -59 13 -7 -4 -8 -2 -4 4 4 8 -1 13 -13 14 -12 0 -27 1 -33 2 -7 1 -15 4
-18 8 -3 4 -30 8 -60 10 -30 2 -57 6 -60 9 -10 13 -90 17 -90 5 0 -8 -2 -8 -8
0 -9 14 -92 13 -92 -1 0 -7 -3 -7 -8 0 -9 12 -62 14 -62 2 0 -4 -9 -5 -20 -2
-12 4 -27 2 -35 -5 -9 -8 -15 -8 -20 0 -3 6 -11 8 -16 4 -6 -3 -25 -8 -42 -11
-18 -3 -39 -9 -48 -14 -9 -4 -19 -5 -23 -2 -3 3 -6 1 -6 -6 0 -7 -4 -9 -10 -6
-5 3 -18 1 -28 -4 -11 -6 -32 -12 -47 -15 -16 -3 -33 -11 -39 -17 -8 -9 -6
-10 7 -6 11 4 16 3 12 -4 -4 -6 -13 -8 -21 -5 -8 3 -24 2 -37 -3 -12 -5 -24
-8 -27 -7 -9 2 -38 -29 -34 -36 2 -3 -5 -4 -17 -1 -18 5 -20 3 -14 -16 4 -12
2 -21 -4 -21 -6 0 -10 3 -10 8 4 21 -3 24 -17 6 -8 -10 -13 -12 -9 -4 5 12 4
12 -7 -1 -7 -9 -23 -21 -36 -28 -13 -7 -20 -17 -16 -23 5 -7 1 -9 -9 -5 -10 3
-17 2 -17 -4 0 -6 -5 -7 -11 -3 -9 5 -10 -1 -5 -22 5 -23 4 -25 -4 -12 -9 15
-19 9 -75 -47 -36 -35 -65 -69 -65 -75 0 -6 -4 -9 -9 -5 -5 3 -12 -4 -16 -15
-3 -11 -11 -20 -16 -20 -5 0 -9 -6 -9 -14 0 -8 -7 -17 -16 -20 -8 -3 -13 -9
-10 -14 2 -4 -9 -23 -25 -41 -23 -27 -27 -37 -18 -48 10 -11 8 -12 -6 -7 -13
5 -16 4 -11 -4 4 -7 2 -12 -4 -12 -6 0 -9 -4 -6 -9 3 -5 -1 -12 -10 -15 -8 -3
-13 -10 -9 -15 3 -5 1 -12 -5 -16 -6 -4 -8 -10 -5 -15 3 -5 1 -11 -5 -15 -6
-4 -8 -11 -5 -16 4 -5 1 -9 -6 -9 -6 0 -9 -8 -6 -20 3 -11 1 -18 -4 -14 -8 4
-11 -9 -8 -32 0 -4 -5 -10 -11 -14 -7 -4 -13 -25 -13 -48 -1 -22 -5 -38 -9
-35 -5 2 -8 -5 -8 -16 0 -10 -3 -27 -7 -37 -5 -13 -3 -15 8 -10 8 4 5 0 -5 -8
-11 -9 -14 -16 -7 -16 7 0 9 -5 4 -12 -12 -21 -12 -38 0 -38 8 0 7 -4 -2 -9
-8 -5 -12 -18 -8 -30 3 -12 2 -21 -1 -21 -4 0 -6 -30 -6 -67 2 -95 7 -143 15
-143 4 0 5 -10 1 -22 -3 -12 -1 -19 4 -15 6 3 9 -7 8 -24 -1 -16 1 -29 6 -29
4 0 6 -11 5 -25 -2 -14 1 -27 6 -31 5 -3 7 -9 4 -14 -3 -5 -1 -11 5 -15 6 -4
8 -11 5 -16 -4 -5 2 -9 12 -9 15 0 16 -2 3 -10 -12 -8 -13 -12 -2 -19 8 -4 13
-11 13 -15 -3 -18 0 -27 7 -23 4 3 8 -6 9 -20 0 -14 6 -29 13 -33 6 -4 11 -10
11 -14 -2 -17 1 -24 19 -44 12 -12 18 -22 15 -22 -3 0 2 -14 10 -30 9 -17 20
-28 25 -25 6 4 10 -1 10 -10 0 -24 51 -87 66 -81 8 3 11 0 8 -9 -7 -18 124
-148 141 -141 7 2 12 -3 11 -12 -1 -10 6 -16 16 -16 10 1 16 -2 13 -6 -3 -5 4
-11 15 -15 11 -3 20 -11 20 -16 0 -5 5 -9 11 -9 7 0 18 -8 26 -17 10 -12 12
-13 8 -3 -4 9 0 7 9 -4 8 -10 20 -15 27 -10 8 5 10 3 4 -6 -6 -10 -3 -12 13
-8 12 4 20 2 17 -2 -6 -10 73 -50 98 -50 9 0 17 -5 17 -11 0 -6 7 -9 15 -5 8
3 15 2 15 -2 0 -9 170 -53 218 -56 18 -1 38 1 44 5 7 4 18 3 24 -2 7 -6 24
-12 39 -15 20 -3 25 -1 19 8 -6 10 -5 11 7 1 12 -10 18 -10 29 0 10 9 11 9 6
0 -5 -8 -1 -13 9 -13 9 0 13 5 9 11 -5 8 -1 8 13 0 11 -6 22 -8 24 -6 3 2 27
5 54 6 28 1 55 5 60 8 6 3 21 7 35 7 14 1 26 3 28 4 1 1 7 4 12 5 6 1 13 4 18
5 14 4 27 7 45 8 10 1 16 6 13 11 -4 5 2 8 11 7 24 -4 125 35 141 54 8 8 11 9
7 3 -4 -9 -1 -11 9 -7 9 3 16 11 16 17 0 6 3 7 6 4 4 -4 19 2 34 13 16 11 32
20 37 20 6 0 18 9 28 20 10 11 24 20 32 20 7 0 13 4 13 8 0 4 12 15 28 24 44
26 93 78 86 90 -4 7 -3 8 5 4 6 -4 25 6 44 25 17 18 25 29 17 24 -8 -4 1 7 20
26 20 19 45 50 55 69 11 19 27 41 35 48 13 12 13 13 0 7 -8 -4 -6 1 4 9 11 9
16 16 10 16 -5 0 -3 4 5 9 8 5 16 17 17 27 2 9 7 20 13 23 11 7 42 87 44 114
1 9 7 17 14 17 8 0 11 11 9 30 -3 24 1 31 18 36 12 3 26 4 32 3 5 -1 11 -1 14
1 3 1 66 2 140 2 123 1 137 3 160 22 l25 21 -19 -22 c-23 -28 -3 -32 28 -5 13
11 16 12 9 2 -10 -13 -4 -15 42 -16 47 0 52 2 42 16 -6 8 -2 6 11 -4 20 -18
26 -16 23 9 -1 6 6 1 14 -10 14 -17 17 -18 25 -5 9 13 10 13 11 0 0 -10 3 -8
9 5 5 11 9 15 9 9 1 -15 61 -24 61 -10 0 6 4 5 9 -3 7 -11 11 -10 20 5 10 18
10 18 11 1 0 -10 5 -15 11 -12 6 4 48 7 95 7 46 0 86 4 90 9 3 5 10 7 15 4 8
-6 13 9 10 28 -1 5 3 6 8 2 6 -3 34 18 64 47 29 29 57 54 63 56 5 2 14 13 21
25 6 12 14 21 18 19 11 -6 85 60 79 69 -3 5 -2 9 3 8 17 -3 33 1 31 9 -2 4 -1
7 2 7 3 1 19 14 36 30 17 17 45 43 63 58 17 15 29 32 26 37 -4 6 1 7 11 3 14
-5 16 -3 11 12 -7 16 -5 16 10 4 15 -13 16 -12 11 9 -5 19 -4 21 8 11 11 -9
14 -8 14 5 0 9 5 15 11 14 6 -2 14 3 17 11 2 8 0 11 -5 8 -5 -3 -10 0 -10 8 0
11 4 12 13 4 10 -8 19 -7 34 4 11 7 17 17 13 20 -3 4 -1 7 7 7 10 0 10 4 -1
18 -13 15 -12 16 4 3 15 -12 19 -12 31 5 8 10 12 22 10 25 -2 4 4 6 14 5 11
-1 16 6 15 18 -1 13 2 15 10 7 7 -7 17 -3 34 15 13 14 21 29 18 34 -3 5 0 12
6 16 7 4 9 3 5 -4 -3 -6 -2 -13 4 -17 5 -3 10 -1 10 5 0 16 26 40 34 32 4 -3
5 6 2 21 -3 16 -1 25 5 22 5 -4 7 -11 4 -16 -11 -16 3 -9 30 15 17 16 24 30
19 38 -5 10 -4 10 6 2 9 -9 17 -7 31 7 21 21 25 34 7 23 -6 -4 -8 -3 -5 4 4 5
17 8 29 4 15 -4 19 -2 14 7 -5 8 0 14 13 18 24 6 26 13 9 33 -11 12 -10 12 4
1 15 -11 21 -9 44 16 14 15 31 27 36 25 6 -2 8 4 4 13 -3 9 -2 13 4 10 6 -3
13 1 16 10 4 9 13 14 20 11 8 -3 14 -1 14 5 0 6 10 20 23 31 12 11 16 16 8 12
-9 -5 -12 -3 -7 5 4 6 11 9 16 6 12 -8 41 25 34 37 -4 7 -2 8 4 4 7 -4 22 0
34 8 12 9 19 16 15 16 -4 0 -2 6 5 14 7 8 16 12 20 10 4 -3 12 4 17 15 6 11
20 23 31 26 11 3 20 13 20 21 0 8 4 14 10 14 5 0 23 13 38 30 16 16 31 27 35
24 3 -3 8 4 12 15 3 12 10 19 15 16 5 -3 18 7 30 22 12 16 25 28 28 28 6 0 30
21 152 136 27 26 52 44 56 40 4 -3 4 3 0 13 -6 16 -4 17 9 6 9 -7 15 -9 13 -4
-3 11 58 74 72 74 6 0 10 7 10 16 0 8 4 13 9 10 4 -3 20 7 34 22 14 15 39 38
56 52 17 14 29 30 26 37 -2 7 2 10 11 6 7 -3 14 1 14 8 0 7 3 10 6 6 4 -3 24
12 45 34 22 22 40 38 40 35 2 -8 6 -24 9 -33 1 -5 1 -32 0 -62 -1 -42 1 -51
12 -45 9 6 9 3 -1 -10 -12 -14 -12 -19 -2 -26 8 -4 9 -10 4 -13 -11 -7 -9
-119 1 -136 4 -6 3 -11 -3 -11 -5 0 -8 -8 -6 -17 2 -10 4 -24 4 -31 1 -7 6
-10 13 -6 7 5 8 3 2 -7 -9 -15 -12 -29 -16 -70 -1 -17 -7 -25 -15 -22 -20 8
-116 -16 -137 -35 -14 -12 -17 -13 -11 -2 8 13 7 13 -8 1 -9 -7 -17 -10 -17
-6 0 4 -7 2 -15 -5 -8 -7 -15 -9 -15 -5 0 5 -8 0 -19 -9 -10 -9 -22 -16 -27
-15 -21 4 -28 -2 -14 -12 12 -9 12 -10 -3 -5 -19 6 -117 -42 -117 -57 0 -5 -4
-5 -10 -2 -5 3 -10 1 -10 -4 0 -6 -6 -11 -14 -11 -8 0 -17 -7 -20 -16 -3 -8
-10 -12 -16 -9 -5 3 -10 -1 -10 -10 0 -9 -4 -14 -8 -11 -5 3 -44 -29 -88 -71
-43 -42 -73 -73 -65 -68 10 5 12 4 7 -3 -4 -7 -13 -12 -21 -12 -7 0 -16 -7
-19 -16 -8 -22 -8 -26 3 -19 5 3 12 1 15 -4 4 -5 -2 -8 -11 -7 -23 4 -54 -15
-46 -27 3 -5 1 -12 -4 -16 -14 -10 -53 -63 -53 -73 0 -5 5 -6 12 -2 7 4 8 3 4
-5 -4 -6 -12 -9 -17 -6 -12 8 -31 -43 -22 -58 3 -7 3 -9 -2 -5 -4 4 -13 2 -20
-5 -12 -12 -30 -65 -27 -79 1 -5 -2 -8 -7 -8 -6 0 -8 -9 -6 -20 2 -11 0 -18
-6 -15 -8 6 -12 -7 -12 -47 0 -10 -4 -18 -9 -18 -5 0 -6 -4 -3 -10 3 -5 2 -10
-3 -10 -6 0 -9 -18 -8 -39 1 -22 -1 -38 -5 -35 -4 2 -9 -9 -11 -26 -3 -19 -1
-27 6 -23 8 5 7 2 0 -8 -6 -8 -10 -26 -9 -41 1 -16 -2 -28 -8 -28 -5 0 -5 -6
2 -13 6 -8 8 -17 4 -21 -12 -12 -12 -36 0 -29 8 5 8 2 0 -8 -10 -12 -10 -18 0
-29 9 -9 9 -11 0 -6 -9 5 -9 -1 -3 -24 6 -20 5 -30 -2 -30 -7 0 -7 -4 -1 -12
5 -7 11 -33 12 -58 2 -25 7 -48 13 -51 6 -4 5 -9 -3 -12 -10 -4 -10 -6 -1 -6
7 -1 12 -14 12 -31 0 -16 4 -30 9 -30 5 0 9 -6 8 -12 -1 -30 4 -49 11 -45 4 3
8 -9 9 -26 1 -17 8 -34 15 -38 7 -4 9 -11 5 -15 -10 -11 13 -35 27 -27 6 4 5
-1 -2 -10 -12 -14 -10 -21 10 -49 12 -18 24 -40 26 -48 2 -8 8 -16 13 -18 5
-2 9 -10 9 -18 0 -8 7 -14 17 -14 9 0 13 -3 10 -7 -4 -3 4 -21 18 -38 13 -18
21 -36 17 -40 -4 -5 -2 -5 5 -1 7 3 14 -2 18 -14 3 -11 13 -20 21 -20 8 0 13
-4 10 -8 -7 -12 33 -44 46 -36 7 5 8 3 4 -5 -9 -14 21 -51 41 -51 7 0 13 -6
13 -14 0 -8 9 -18 20 -21 11 -3 20 -11 20 -16 0 -5 7 -9 15 -9 8 0 15 -4 15
-10 0 -5 6 -10 14 -10 8 0 16 -4 18 -8 7 -17 128 -83 139 -76 7 4 9 3 6 -2 -3
-6 6 -15 21 -21 41 -16 66 -26 72 -27 3 -1 11 -5 18 -10 7 -4 16 -5 19 -2 3 3
12 1 20 -5 7 -6 13 -8 13 -4 0 4 7 2 15 -5 8 -6 23 -9 36 -5 13 5 19 3 15 -3
-8 -14 41 -21 55 -8 9 8 10 8 5 -1 -10 -18 18 -22 32 -4 11 14 11 14 5 -3 -4
-11 -2 -17 3 -13 6 3 16 2 24 -3 9 -6 18 -3 27 8 10 13 12 14 8 2 -4 -12 2
-15 31 -15 19 1 40 8 46 16 8 11 9 10 4 -3 -5 -18 16 -21 41 -5 6 4 14 3 18
-3 4 -6 10 -8 14 -6 4 3 35 6 69 7 34 1 62 7 62 12 0 5 7 7 15 3 21 -8 46 4
38 18 -4 7 -1 7 9 -1 8 -7 18 -10 22 -6 4 4 13 8 19 9 7 0 20 2 30 2 10 1 16
6 13 11 -3 4 6 7 20 5 20 -2 24 1 20 13 -6 13 -4 14 10 3 10 -9 18 -10 22 -3
4 5 20 13 35 17 18 4 25 11 20 19 -5 9 -3 9 8 1 11 -9 17 -9 26 1 6 7 9 15 6
18 -3 4 6 4 20 1 19 -3 29 1 37 16 6 11 15 18 20 15 5 -3 18 3 30 15 11 11 20
17 20 13 0 -3 10 3 23 15 13 12 27 19 32 15 4 -5 5 -2 1 5 -4 6 -3 12 2 12 12
0 54 37 52 45 -1 4 2 10 6 13 4 4 4 1 0 -5 -12 -22 2 -14 34 17 17 17 28 35
25 40 -3 6 1 7 9 4 9 -3 16 -2 16 3 0 5 20 30 45 55 41 43 61 79 33 62 -7 -4
-8 -3 -4 4 4 7 14 12 22 12 8 0 14 4 14 9 0 5 7 17 16 26 9 8 17 26 18 39 1
16 6 22 16 18 13 -5 13 -4 0 13 -8 10 -10 16 -4 12 13 -7 41 20 31 29 -3 4 1
13 9 21 8 9 13 22 10 30 -3 8 -2 12 3 9 7 -5 19 20 25 54 1 3 5 11 9 18 5 6 5
17 1 24 -4 6 -3 8 4 4 6 -4 11 1 10 11 0 10 5 33 10 51 8 24 8 31 -1 25 -7 -3
-4 2 5 13 14 16 15 23 5 34 -9 10 -9 11 1 6 6 -4 12 -3 12 1 0 5 -6 15 -12 22
-10 11 -10 13 0 7 7 -5 12 -1 13 11 0 10 2 27 5 38 10 50 5 188 -8 196 -11 7
-10 9 1 9 11 0 11 3 1 15 -7 8 -8 15 -3 15 6 0 8 11 5 25 -2 15 -9 22 -16 18
-8 -4 -8 -3 0 6 12 14 6 71 -8 71 -6 0 -8 7 -4 15 3 10 -1 15 -12 16 -14 0
-14 2 2 8 14 5 16 10 8 15 -7 4 -10 12 -7 17 4 5 -2 9 -12 10 -10 0 -13 3 -6
6 10 3 9 11 -2 34 -9 16 -13 29 -9 29 3 0 -1 11 -10 25 -9 13 -16 33 -16 45 0
14 -7 20 -22 20 -17 0 -19 3 -10 9 12 7 12 12 1 30 -8 11 -17 21 -22 21 -4 0
-5 5 -2 10 3 6 1 10 -6 10 -7 0 -10 3 -6 6 6 6 -1 17 -35 54 -9 10 -14 20 -12
23 10 9 -78 89 -92 83 -9 -3 -12 -2 -9 5 4 6 14 8 22 4 13 -5 14 -3 3 10 -7 9
-19 14 -27 11 -8 -3 -11 -1 -8 4 4 6 -1 17 -9 26 -9 8 -16 12 -17 7 0 -4 -4 0
-8 10 -4 10 -10 18 -14 18 -4 -1 -19 11 -32 25 -14 15 -25 23 -25 19 0 -4 -9
2 -19 14 -12 14 -25 20 -33 15 -7 -4 -10 -4 -6 1 9 10 -35 45 -57 45 -10 0
-13 5 -9 12 4 7 3 8 -4 4 -7 -4 -12 -2 -12 4 0 6 -4 8 -10 5 -5 -3 -10 -2 -10
3 0 11 -50 35 -58 28 -3 -3 -10 1 -16 10 -6 8 -21 16 -34 17 -12 0 -22 4 -22
7 0 4 -7 7 -15 8 -8 1 -22 3 -30 4 -8 1 -15 5 -15 9 0 3 -11 9 -25 11 -13 3
-22 2 -20 -3 3 -4 0 -11 -6 -15 -7 -4 -9 -3 -6 2 3 6 2 16 -4 24 -7 13 -9 13
-9 0 0 -11 -2 -12 -8 -3 -4 7 -26 15 -47 19 -22 3 -58 9 -80 13 -22 4 -66 7
-97 6 -37 -1 -59 3 -62 10 -2 7 -16 11 -31 9 -15 -1 -24 1 -20 4 3 4 12 7 18
7 7 0 12 3 12 6 0 3 6 13 14 22 11 14 11 17 1 17 -8 0 -10 3 -7 7 4 3 1 13 -6
21 -8 11 -8 14 0 9 15 -9 13 54 -2 65 -7 5 -6 8 1 8 12 0 12 49 -1 69 -5 10
-4 12 3 7 7 -4 12 -2 12 3 0 6 -5 11 -11 11 -8 0 -8 4 0 13 8 10 7 17 -2 27
-9 10 -9 11 1 6 6 -4 12 -2 12 3 0 6 -4 11 -9 11 -4 0 -6 11 -3 25 2 14 -2 33
-9 42 -10 12 -10 14 -1 9 8 -5 12 0 12 18 0 14 -5 28 -10 31 -6 4 -7 12 -3 18
11 17 10 127 -1 127 -5 0 -3 6 3 14 9 10 9 16 1 21 -6 4 -7 12 -3 18 13 19 9
47 -7 57 -8 5 -10 10 -4 10 13 0 13 162 -1 172 -7 5 -7 8 0 8 11 0 12 71 1 89
-4 6 -1 11 6 12 7 0 4 4 -7 9 -11 5 -15 9 -9 9 14 1 17 88 3 96 -5 4 -6 12 -2
18 12 20 12 41 0 56 -9 12 -9 13 1 7 6 -4 12 -2 12 3 0 6 -4 11 -8 11 -4 0 -8
10 -9 21 -2 27 -33 61 -50 55 -7 -3 -13 -2 -13 3 0 8 -18 10 -38 3z m73 -52
c3 -5 1 -10 -4 -10 -6 0 -11 5 -11 10 0 6 2 10 4 10 3 0 8 -4 11 -10z m-2255
-242 c0 -4 -4 -8 -9 -8 -6 0 -12 4 -15 8 -3 5 1 9 9 9 8 0 15 -4 15 -9z m-363
-193 c0 -8 -4 -12 -9 -9 -5 3 -6 10 -3 15 9 13 12 11 12 -6z m37 -183 c3 -5
-1 -9 -9 -9 -8 0 -12 4 -9 9 3 4 7 8 9 8 2 0 6 -4 9 -8z m2386 -56 c0 -3 -4
-8 -10 -11 -5 -3 -10 -1 -10 4 0 6 5 11 10 11 6 0 10 -2 10 -4z m-1680 -80 c0
-3 -4 -8 -10 -11 -5 -3 -10 -1 -10 4 0 6 5 11 10 11 6 0 10 -2 10 -4z m1459
-3 c-1 -5 -1 -15 0 -23 1 -13 2 -13 11 0 5 8 10 10 10 4 0 -14 -92 -99 -104
-96 -5 2 -6 -4 -2 -13 3 -9 2 -13 -3 -10 -12 7 -112 -85 -105 -97 3 -4 2 -8
-3 -7 -22 4 -35 -2 -30 -15 4 -10 1 -13 -8 -9 -8 3 -18 -2 -21 -11 -3 -9 -10
-13 -15 -10 -13 8 -11 -10 4 -26 10 -12 9 -12 -5 -1 -15 11 -21 9 -42 -12 -14
-14 -27 -22 -30 -19 -3 3 -6 -1 -6 -9 0 -8 -9 -22 -20 -32 -11 -9 -20 -15 -20
-12 0 3 -17 -11 -37 -30 -20 -19 -41 -35 -46 -35 -4 0 -5 -4 -2 -10 3 -5 1
-10 -4 -10 -21 0 -62 -44 -56 -60 5 -11 3 -12 -6 -3 -9 9 -16 7 -31 -7 -11
-10 -17 -23 -14 -29 4 -6 1 -9 -7 -5 -9 3 -22 -4 -31 -18 -9 -13 -20 -22 -23
-20 -4 2 -9 -2 -12 -9 -2 -7 1 -9 9 -4 9 5 11 4 6 -4 -4 -6 -11 -9 -16 -6 -4
3 -25 -11 -46 -30 -22 -19 -43 -35 -49 -35 -5 0 -3 -5 5 -10 12 -8 12 -10 -5
-10 -11 0 -30 -12 -42 -27 -13 -14 -23 -23 -23 -19 0 4 -11 -5 -26 -19 -14
-14 -23 -29 -19 -34 3 -5 1 -13 -5 -16 -6 -4 -10 -3 -9 2 4 24 -3 25 -18 3
-10 -14 -17 -29 -15 -33 1 -5 -1 -6 -6 -3 -4 3 -21 -6 -37 -20 -15 -13 -32
-24 -38 -24 -5 0 -3 -8 4 -17 8 -9 9 -14 2 -10 -16 10 -45 -3 -39 -18 2 -7 -3
-12 -12 -11 -9 0 -16 -5 -14 -12 1 -8 -2 -11 -8 -7 -12 7 -122 -99 -112 -109
3 -4 -1 -4 -11 0 -12 4 -17 1 -17 -9 0 -9 -5 -19 -12 -23 -7 -5 -8 -3 -3 7 5
8 -12 -4 -37 -26 -25 -22 -45 -45 -43 -51 2 -6 -4 -11 -13 -10 -9 0 -16 -5
-14 -12 1 -6 -1 -11 -5 -11 -18 3 -33 -1 -31 -8 2 -5 1 -8 -2 -8 -3 0 -20 -15
-38 -33 -18 -18 -32 -31 -32 -29 0 2 -19 -14 -42 -36 -24 -21 -42 -43 -40 -49
1 -5 -2 -7 -7 -4 -5 4 -14 -2 -20 -11 -6 -10 -11 -14 -11 -10 0 5 -15 -6 -32
-24 -18 -18 -32 -37 -30 -42 1 -4 -2 -6 -8 -2 -16 10 -72 -47 -57 -58 9 -6 8
-7 -3 -4 -8 2 -16 13 -18 25 -2 12 -7 20 -12 17 -4 -3 -6 8 -4 24 3 17 0 32
-7 37 -9 5 -10 2 -5 -12 6 -15 5 -16 -5 -7 -10 10 -9 15 1 27 7 10 9 23 4 33
-9 23 -9 20 -18 73 -5 24 -16 51 -25 58 -9 7 -10 11 -3 7 8 -4 11 1 8 17 -3
13 -5 24 -7 26 -2 3 -6 19 -8 33 0 5 -5 8 -9 5 -5 -3 -9 1 -9 9 0 8 3 12 7 10
6 -4 -6 60 -18 95 -3 8 -7 29 -9 45 -3 17 -9 32 -14 33 -5 2 -7 8 -3 13 3 5
-2 37 -12 71 -9 35 -17 73 -17 86 -1 12 -4 22 -7 22 -3 0 -6 10 -7 22 -1 11
-8 25 -15 29 -8 5 -9 9 -2 9 8 0 8 11 1 40 -7 25 -14 35 -19 27 -4 -7 -8 -7
-8 -2 0 6 5 16 12 23 8 8 9 12 1 12 -6 0 -9 9 -6 20 3 11 0 20 -6 20 -6 0 -8
7 -4 17 5 13 2 15 -13 10 -18 -7 -18 -6 -2 6 10 8 15 17 11 20 -3 4 -13 1 -22
-5 -12 -10 -12 -7 2 8 9 11 15 23 12 26 -3 3 -8 18 -11 34 -3 16 -12 56 -20
88 -9 33 -16 68 -17 78 -1 10 -4 18 -7 18 -3 0 -7 17 -8 37 -2 20 -8 43 -14
50 -6 7 -7 13 -3 13 4 0 2 6 -4 13 -6 8 -9 16 -6 18 2 3 0 21 -4 42 -9 39 -12
37 47 40 9 1 20 6 24 12 5 7 8 7 8 0 0 -6 23 -9 58 -8 31 2 89 4 127 6 39 1
75 6 82 10 6 4 14 3 18 -3 4 -7 13 -6 27 1 14 8 18 8 14 0 -4 -6 -2 -9 6 -6 7
3 49 7 94 8 44 2 86 7 94 12 8 5 11 4 6 -3 -8 -14 46 -11 56 3 5 6 8 5 8 -3 0
-7 4 -11 8 -8 5 3 39 6 78 7 38 1 75 7 83 13 11 8 13 8 7 -1 -9 -16 35 -13 46
2 5 7 8 6 8 -1 0 -11 55 -12 66 -1 4 4 13 2 20 -4 8 -7 14 -7 19 1 3 6 11 7
17 4 6 -4 14 0 19 7 5 8 9 9 9 3 0 -12 94 -13 106 -1 4 3 12 3 18 0 16 -10 46
-11 46 -1 0 5 8 4 18 -1 13 -7 27 -6 46 4 14 8 24 10 21 5 -3 -5 13 -9 35 -8
22 0 43 4 45 9 3 4 16 5 28 1 35 -12 103 -6 99 9 -2 9 1 9 10 2 12 -10 100
-10 288 -3 36 2 71 8 79 14 11 8 13 8 8 -1 -9 -15 54 -13 65 2 5 6 8 5 8 -2 0
-7 5 -13 11 -13 5 0 7 6 3 13 -5 8 -2 8 9 -2 9 -7 18 -11 18 -7 1 3 3 11 4 16
1 6 3 12 4 15 2 8 11 6 10 -2z m41 -59 c0 -8 -19 -13 -24 -6 -3 5 1 9 9 9 8 0
15 -2 15 -3z m-76 -62 c3 -5 -1 -9 -9 -9 -8 0 -12 4 -9 9 3 4 7 8 9 8 2 0 6
-4 9 -8z m-2048 -28 c1 -9 0 -13 -4 -10 -3 4 -7 14 -8 22 -1 9 0 13 4 10 3 -4
7 -14 8 -22z m-104 -89 c3 3 11 -2 18 -10 7 -9 9 -15 4 -14 -23 4 -26 -3 -8
-23 10 -12 13 -18 5 -13 -11 6 -13 4 -8 -9 4 -10 7 -22 7 -27 0 -6 4 -8 9 -5
5 3 7 -10 4 -30 -3 -20 -1 -34 4 -31 5 3 10 -9 11 -26 2 -17 8 -35 15 -39 9
-6 8 -8 -3 -8 -13 0 -13 -1 0 -10 8 -5 11 -10 6 -10 -5 0 -2 -8 5 -17 8 -9 9
-14 3 -10 -7 4 -9 -2 -6 -19 3 -17 9 -23 20 -19 12 4 12 3 3 -9 -9 -11 -8 -28
5 -78 9 -34 18 -74 21 -88 3 -14 6 -32 8 -40 2 -8 4 -19 4 -23 1 -5 7 -5 14
-1 8 5 8 2 -2 -9 -7 -9 -9 -17 -4 -17 10 0 11 -6 14 -55 1 -13 5 -23 9 -20 4
2 6 -6 5 -18 -3 -31 14 -89 24 -83 4 3 6 -5 4 -18 -3 -13 0 -27 7 -31 7 -4 8
-11 2 -18 -6 -8 -6 -21 1 -37 5 -14 11 -32 13 -40 1 -8 10 -46 19 -85 9 -38
18 -78 20 -89 2 -10 10 -25 17 -34 10 -12 10 -14 1 -8 -7 4 -13 3 -13 -2 0 -6
7 -13 16 -16 13 -5 14 -9 4 -21 -7 -8 -8 -15 -3 -15 6 0 11 -12 11 -27 2 -38
6 -56 15 -70 5 -7 6 -17 2 -22 -3 -6 2 -14 11 -19 11 -6 13 -12 6 -16 -8 -4
-8 -15 0 -36 16 -49 7 -57 -57 -53 -37 2 -63 -1 -73 -9 -12 -10 -14 -10 -8 0
4 7 2 12 -6 12 -8 0 -20 -6 -27 -12 -11 -10 -13 -10 -7 0 4 7 1 12 -8 12 -9 0
-16 -6 -16 -12 0 -10 -2 -10 -9 0 -4 8 -12 14 -16 14 -4 0 -12 -6 -16 -14 -7
-10 -9 -10 -9 0 0 15 -31 12 -42 -3 -5 -6 -8 -5 -8 3 0 8 -5 10 -12 6 -16 -10
-88 -11 -82 -2 3 5 -6 4 -20 -2 -19 -7 -26 -6 -27 3 0 9 -2 9 -6 -1 -2 -6 -10
-9 -16 -5 -17 10 -47 11 -53 1 -3 -4 -15 -3 -26 3 -18 10 -20 9 -14 -6 5 -14
3 -15 -6 -8 -7 6 -23 9 -36 8 -13 -1 -25 2 -28 7 -3 5 -12 4 -19 -2 -10 -9
-20 -8 -37 1 -13 7 -27 12 -32 11 -5 -2 -5 3 1 10 6 7 11 24 12 38 0 14 2 36
4 50 2 14 -1 30 -5 37 -5 6 -5 14 1 17 6 4 6 18 -1 39 -5 17 -10 52 -11 77 -1
25 -6 51 -10 58 -5 6 -5 17 -2 22 3 6 2 10 -3 10 -6 0 -8 10 -4 22 3 11 1 19
-4 16 -5 -4 -10 7 -11 23 -1 16 -13 51 -26 79 -13 27 -19 47 -13 44 6 -3 2 2
-8 10 -12 9 -14 16 -7 16 10 0 9 3 -1 14 -8 7 -22 32 -32 55 -11 22 -23 41
-28 41 -5 0 -6 5 -2 12 5 8 2 9 -10 5 -10 -4 -15 -3 -11 3 9 15 -46 102 -61
96 -7 -3 -16 0 -20 6 -4 7 -3 8 4 4 7 -4 12 -1 12 9 0 9 -4 13 -10 10 -5 -3
-10 1 -10 9 0 9 5 16 10 16 6 0 10 7 10 15 0 8 5 15 11 15 6 0 29 19 50 41 22
23 39 38 39 35 0 -4 6 -1 14 6 8 7 12 16 9 21 -2 4 3 7 12 7 8 0 18 7 21 15 3
8 15 17 25 20 16 5 18 9 8 21 -9 12 -9 13 3 9 16 -6 65 32 60 47 -1 5 2 7 7 4
10 -7 26 11 26 29 0 6 6 11 13 11 6 1 17 2 23 3 5 0 8 5 4 10 -3 5 4 13 16 16
13 4 18 12 15 21 -3 8 -1 12 4 9 5 -3 18 3 30 15 11 11 25 20 30 20 6 0 10 7
10 16 0 9 -5 12 -12 8 -7 -5 -8 -3 -3 5 5 9 11 9 18 2 11 -11 66 38 68 61 0
10 2 10 6 1 3 -10 8 -10 19 1 17 17 19 30 2 20 -7 -4 -8 -3 -4 5 4 6 12 9 17
6 5 -4 20 5 32 19 13 14 28 22 32 18 5 -4 5 2 1 12 -5 15 -4 17 7 8 8 -7 16
-10 19 -7z m-197 -4 c3 -5 2 -12 -3 -15 -5 -3 -9 1 -9 9 0 17 3 19 12 6z
m2856 -28 c13 -16 12 -17 -3 -4 -10 7 -18 15 -18 17 0 8 8 3 21 -13z m-2496
-21 c-3 -3 -11 0 -18 7 -9 10 -8 11 6 5 10 -3 15 -9 12 -12z m-2 -27 c-3 -9
-8 -14 -10 -11 -3 3 -2 9 2 15 9 16 15 13 8 -4z m1862 -93 c-3 -3 -11 0 -18 7
-9 10 -8 11 6 5 10 -3 15 -9 12 -12z m-3822 -87 c-3 -9 -8 -14 -10 -11 -3 3
-2 9 2 15 9 16 15 13 8 -4z m2025 -30 c-3 -3 -9 2 -12 12 -6 14 -5 15 5 6 7
-7 10 -15 7 -18z m2482 -15 c0 -5 -5 -10 -11 -10 -5 0 -7 5 -4 10 3 6 8 10 11
10 2 0 4 -4 4 -10z m-180 -16 c0 -8 -19 -13 -24 -6 -3 5 1 9 9 9 8 0 15 -2 15
-3z m-3900 -18 c0 -2 -7 -7 -16 -10 -8 -3 -12 -2 -9 4 6 10 25 14 25 6z m-152
-31 c2 -2 15 0 28 5 16 7 24 6 24 -1 0 -7 6 -6 17 2 10 8 14 9 10 2 -5 -8 1
-11 20 -9 15 2 41 0 56 -5 25 -7 28 -6 23 9 -5 13 -3 13 9 -2 14 -19 62 -35
51 -18 -3 5 1 9 9 9 8 0 12 -4 9 -9 -5 -7 10 -12 29 -9 4 0 7 -4 7 -10 0 -5 5
-7 10 -4 6 3 10 2 10 -4 0 -6 7 -8 16 -4 9 3 19 1 23 -6 4 -7 18 -13 29 -14
12 -1 22 -4 22 -8 0 -4 18 -14 39 -22 22 -9 42 -21 46 -27 5 -8 11 -8 21 1 12
10 13 9 8 -5 -4 -10 -1 -16 7 -16 16 0 79 -51 79 -63 0 -5 -5 -5 -12 -1 -8 5
-9 2 -5 -10 4 -10 3 -15 -3 -11 -6 3 -10 1 -10 -5 0 -6 -5 -8 -12 -4 -7 5 -9
2 -5 -9 4 -11 2 -14 -9 -10 -9 3 -14 -1 -14 -13 0 -9 -3 -15 -6 -11 -6 6 -21
-4 -54 -37 -16 -16 -17 -22 -7 -35 11 -14 10 -14 -6 -2 -15 12 -22 9 -62 -33
-25 -25 -45 -43 -45 -39 0 4 -20 -14 -45 -39 -25 -26 -45 -45 -45 -42 0 2 -9
-4 -19 -13 -11 -9 -18 -20 -15 -25 3 -5 0 -7 -8 -6 -7 2 -12 -3 -10 -10 1 -6
-2 -11 -7 -10 -13 5 -141 -114 -134 -125 3 -5 0 -7 -8 -5 -8 3 -35 -17 -61
-44 -27 -27 -48 -46 -48 -43 0 3 -9 -3 -21 -14 -12 -11 -18 -24 -15 -29 3 -6
-1 -9 -11 -8 -17 3 -53 -27 -53 -44 0 -5 -7 -10 -16 -10 -10 0 -14 -6 -11 -15
4 -8 1 -17 -5 -21 -6 -4 -8 -3 -4 4 3 6 2 13 -4 17 -5 3 -10 -1 -10 -9 0 -9
-12 -23 -27 -33 -34 -21 -72 -60 -67 -67 2 -3 1 -4 -3 -1 -10 8 -33 -16 -26
-29 3 -6 3 -8 -2 -4 -12 11 -47 -12 -41 -27 3 -9 0 -12 -9 -9 -8 3 -19 -4 -26
-18 -17 -31 -35 -48 -44 -40 -4 4 -6 2 -5 -3 1 -6 2 -12 0 -15 -10 -27 -7 -53
8 -68 25 -25 52 -35 52 -19 0 8 3 8 8 2 9 -13 211 -14 231 -1 7 5 16 5 20 0 7
-11 91 -13 91 -2 0 8 34 3 52 -8 6 -4 9 -3 5 2 -7 13 106 12 115 -1 4 -5 8 -1
8 10 0 13 3 16 8 8 8 -13 29 -12 51 1 10 6 12 5 7 -3 -10 -15 25 -11 36 4 5 7
8 6 8 -1 0 -5 18 -11 40 -11 24 0 37 3 34 9 -4 6 1 6 13 -1 14 -7 24 -7 33 2
10 9 11 9 5 -2 -5 -9 -3 -12 6 -9 8 3 14 10 14 16 0 5 3 14 7 18 4 3 6 -2 4
-13 -4 -16 1 -20 20 -20 14 0 21 4 17 10 -4 6 -1 7 8 2 11 -8 98 -8 289 -2 30
1 61 6 69 11 9 6 12 5 8 -1 -4 -7 10 -10 38 -8 25 1 45 -2 45 -7 0 -5 6 -6 13
-2 6 4 4 -2 -7 -14 -10 -12 -16 -28 -12 -37 3 -9 2 -14 -3 -11 -11 7 -23 -22
-14 -36 3 -6 1 -8 -4 -5 -6 4 -16 -6 -22 -23 -5 -17 -15 -30 -22 -30 -7 0 -9
-3 -6 -6 3 -4 1 -16 -5 -28 -7 -11 -11 -24 -10 -28 1 -5 -2 -7 -6 -5 -5 1 -22
-14 -38 -33 -16 -19 -22 -30 -14 -25 13 8 13 6 1 -8 -7 -9 -17 -14 -22 -11 -5
3 -9 1 -9 -4 0 -4 -10 -19 -22 -32 -13 -14 -22 -28 -20 -33 1 -5 -1 -6 -6 -3
-4 2 -22 -8 -39 -22 -17 -15 -43 -35 -57 -46 -14 -10 -23 -23 -19 -29 3 -5 1
-7 -4 -4 -11 7 -102 -38 -114 -56 -3 -5 -9 -8 -13 -7 -12 2 -76 -24 -76 -31 0
-4 -8 -6 -17 -5 -10 2 -24 -4 -31 -13 -8 -9 -10 -10 -6 -2 5 10 3 12 -7 5 -14
-8 -27 -12 -64 -18 -11 -2 -20 -5 -20 -6 0 -2 -38 -6 -84 -9 -17 -1 -22 -5
-17 -18 6 -17 5 -17 -7 -1 -13 16 -15 16 -31 0 -14 -14 -17 -14 -14 -2 2 8 -4
15 -12 15 -8 0 -14 -7 -12 -15 1 -10 -2 -9 -13 4 -11 14 -15 16 -15 5 0 -12
-2 -12 -10 1 -8 12 -11 13 -19 1 -5 -7 -11 -9 -14 -4 -6 9 -45 15 -114 16 -18
0 -30 4 -27 9 3 4 -10 8 -29 8 -18 0 -37 3 -41 8 -4 4 -12 8 -17 8 -5 1 -11 3
-14 4 -3 1 -8 3 -12 5 -51 14 -63 18 -63 26 0 5 -7 6 -15 3 -8 -4 -15 -1 -15
6 0 6 -4 9 -8 6 -5 -3 -18 3 -29 14 -16 14 -23 16 -33 7 -10 -9 -11 -9 -6 1 5
7 1 12 -9 12 -9 0 -14 4 -11 9 6 9 -53 38 -67 33 -5 -1 -6 1 -3 6 8 13 -72 74
-86 66 -7 -4 -8 -3 -4 4 4 7 -8 27 -29 47 -19 20 -35 40 -35 46 0 6 -4 7 -10
4 -5 -3 -10 1 -10 9 0 8 -9 21 -20 29 -11 8 -17 17 -13 20 3 4 1 7 -6 7 -7 0
-9 5 -6 10 3 6 2 10 -4 10 -5 0 -13 9 -16 20 -3 11 -14 20 -23 20 -15 0 -15 2
-2 10 14 9 7 14 -13 11 -5 -1 -6 3 -2 9 7 12 -16 70 -27 70 -5 0 -7 3 -7 8 3
16 -14 72 -22 72 -5 0 -5 7 -2 17 4 9 2 14 -3 10 -5 -3 -10 2 -10 11 -1 9 -4
33 -8 52 -12 61 -15 84 -17 132 -1 26 -6 45 -11 42 -4 -3 -8 -1 -8 5 0 5 6 11
13 14 9 3 8 8 -3 22 -9 11 -10 16 -2 11 8 -5 12 0 12 13 0 12 -6 21 -12 21 -9
0 -9 3 1 9 8 5 12 18 8 30 -3 12 -2 19 3 16 4 -3 8 5 7 18 0 12 3 38 8 57 4
19 7 43 7 53 0 9 4 17 10 17 6 0 9 3 5 6 -3 4 0 19 8 34 8 15 11 30 8 34 -4 3
-2 6 4 6 5 0 10 7 11 15 1 8 3 22 4 30 1 8 5 12 9 9 5 -3 11 7 15 22 4 15 22
49 40 77 18 28 30 55 27 60 -3 6 -2 7 4 4 5 -3 17 3 26 14 22 25 21 30 0 23
-10 -3 -2 3 17 13 21 11 34 26 34 36 -1 9 3 14 8 11 5 -3 22 8 37 25 15 17 33
31 40 31 7 0 11 7 8 14 -4 10 -1 13 9 9 7 -3 14 0 14 5 0 6 8 13 18 16 9 3 28
16 42 29 14 13 30 25 35 27 54 20 65 25 65 31 0 4 12 10 27 14 15 3 40 16 57
28 16 11 27 16 23 10 -4 -6 3 -8 18 -5 14 2 28 8 31 13 3 5 15 9 28 9 12 0 26
3 30 7 3 4 26 8 49 10 54 4 75 8 83 15 6 6 55 1 62 -7z m1722 -11 c0 -8 -19
-13 -24 -6 -3 5 1 9 9 9 8 0 15 -2 15 -3z m65 -12 c-3 -3 -11 0 -18 7 -9 10
-8 11 6 5 10 -3 15 -9 12 -12z m-2378 -7 c0 -8 -4 -12 -9 -9 -5 3 -6 10 -3 15
9 13 12 11 12 -6z m4274 -22 c-12 -20 -14 -14 -5 12 4 9 9 14 11 11 3 -2 0
-13 -6 -23z m69 21 c0 -8 -19 -13 -24 -6 -3 5 1 9 9 9 8 0 15 -2 15 -3z
m-4186 -20 c3 -8 2 -12 -4 -9 -6 3 -10 10 -10 16 0 14 7 11 14 -7z m4822 -29
c208 -46 400 -171 531 -345 45 -60 113 -189 137 -261 73 -222 56 -470 -48
-684 -279 -579 -1044 -697 -1489 -230 -104 109 -191 274 -218 410 -19 98 -21
121 -20 215 1 118 3 140 12 140 4 0 6 8 5 18 -2 9 3 35 11 57 7 21 14 49 15
62 2 13 6 23 10 23 4 0 8 7 8 15 0 9 7 27 16 40 9 13 12 30 8 36 -4 7 -3 10 2
6 5 -3 20 17 33 44 14 27 29 49 33 49 4 0 8 6 8 13 0 15 36 60 105 129 28 28
49 56 47 62 -2 6 0 8 4 4 6 -7 67 31 84 52 3 3 35 23 72 43 91 51 199 91 267
100 11 2 14 -24 15 -130 1 -73 3 -133 6 -133 3 0 5 -107 5 -238 0 -262 1 -276
23 -267 11 4 12 2 5 -7 -16 -19 19 -82 36 -65 10 9 11 8 6 -5 -4 -10 -3 -18 1
-19 5 0 19 -2 32 -3 12 -2 22 1 22 6 0 4 6 8 13 8 14 0 41 39 33 47 -3 3 -1
15 5 26 9 15 8 18 -3 11 -11 -6 -11 -5 1 9 11 14 11 17 0 17 -9 0 -10 3 -4 8
15 11 17 64 2 55 -9 -5 -9 -3 -1 8 14 18 14 52 0 61 -8 6 -8 8 0 8 6 0 11 14
12 30 0 20 -3 28 -10 24 -7 -5 -8 -2 -3 5 11 18 13 71 2 71 -5 0 -4 6 2 13 6
8 8 16 6 19 -12 12 -13 48 -2 48 8 0 8 3 2 8 -6 4 -10 14 -10 22 1 8 -4 21 -9
29 -8 11 -8 13 0 8 7 -4 11 5 12 24 0 20 -3 27 -11 23 -8 -5 -8 -3 1 7 6 7 12
17 12 22 0 4 -6 5 -12 1 -10 -6 -10 -4 -3 7 9 13 11 26 5 54 -1 6 -1 52 -1
103 1 51 -3 91 -7 88 -5 -3 -9 1 -9 8 0 17 94 13 193 -9z m218 7 c3 -5 -1 -9
-9 -9 -8 0 -12 4 -9 9 3 4 7 8 9 8 2 0 6 -4 9 -8z m120 -8 c3 -8 2 -12 -4 -9
-6 3 -10 10 -10 16 0 14 7 11 14 -7z m-2970 -12 c3 -5 -1 -9 -9 -9 -8 0 -12 4
-9 9 3 4 7 8 9 8 2 0 6 -4 9 -8z m1953 -47 c0 -8 -4 -12 -9 -9 -5 3 -6 10 -3
15 9 13 12 11 12 -6z m1023 -50 c19 -22 8 -25 -12 -3 -10 10 -14 18 -9 18 5 0
14 -7 21 -15z m-1250 -25 c-8 -5 -19 -10 -25 -10 -5 0 -3 5 5 10 8 5 20 10 25
10 6 0 3 -5 -5 -10z m1353 -50 c6 0 8 -3 4 -6 -6 -7 18 -35 29 -34 3 1 11 -6
18 -16 8 -11 18 -14 26 -9 7 5 11 4 7 -1 -3 -5 1 -20 10 -34 8 -14 12 -17 9
-7 -3 11 -2 15 4 12 6 -3 10 -13 10 -22 0 -9 8 -23 18 -32 11 -9 24 -26 31
-39 7 -12 16 -20 21 -17 6 4 7 -1 3 -11 -4 -12 -3 -15 5 -10 8 5 10 2 6 -8 -3
-9 -1 -16 5 -16 6 0 11 -9 11 -19 0 -11 5 -23 10 -26 6 -4 8 -11 5 -16 -3 -5
0 -7 7 -4 9 3 14 -4 15 -22 0 -15 11 -35 23 -45 12 -10 17 -18 11 -18 -17 0
-13 -17 10 -39 13 -12 17 -21 10 -26 -17 -10 -3 -25 17 -18 14 5 14 3 -2 -9
-13 -11 -16 -17 -7 -22 6 -4 9 -11 6 -15 -2 -5 0 -37 6 -72 6 -35 11 -83 11
-107 0 -23 4 -40 8 -37 5 3 3 -7 -5 -21 -12 -24 -12 -29 3 -41 12 -9 13 -12 2
-8 -10 4 -15 -2 -17 -17 -6 -95 -9 -115 -15 -111 -13 7 -9 -12 5 -26 10 -11 9
-13 -1 -7 -8 5 -14 -3 -18 -24 -4 -17 -11 -33 -16 -36 -5 -3 -4 -12 3 -20 10
-12 9 -13 -6 -8 -12 5 -16 4 -11 -4 3 -6 1 -14 -5 -17 -5 -4 -8 -13 -5 -21 3
-8 1 -14 -5 -14 -6 0 -8 -7 -5 -16 4 -10 2 -13 -6 -8 -8 5 -9 2 -5 -10 4 -9 3
-15 -1 -12 -4 3 -14 -4 -21 -16 -10 -16 -10 -19 1 -12 7 4 10 4 6 -1 -4 -4 -2
-15 4 -24 10 -13 10 -14 -1 -4 -16 14 -41 6 -41 -14 0 -8 4 -12 9 -8 5 3 12 1
15 -4 3 -4 -4 -8 -16 -7 -14 1 -27 -8 -34 -21 -6 -13 -15 -20 -20 -15 -4 4 -2
-1 5 -11 12 -15 12 -17 -2 -11 -16 6 -42 -28 -30 -40 3 -3 -1 -6 -10 -6 -23 0
-66 -50 -60 -69 4 -12 3 -13 -5 -3 -7 11 -15 8 -37 -12 -15 -14 -24 -29 -21
-34 3 -5 -5 -8 -17 -8 -12 1 -21 -4 -20 -11 2 -7 -3 -10 -10 -7 -7 2 -22 -3
-32 -13 -30 -27 -101 -64 -109 -56 -3 3 -6 1 -6 -5 0 -10 -56 -28 -73 -24 -5
2 -6 -2 -2 -8 5 -9 -22 -15 -47 -11 -5 0 -8 -3 -8 -8 0 -5 -6 -9 -12 -8 -36 1
-49 -4 -42 -15 5 -10 4 -10 -6 -1 -9 8 -20 8 -42 1 -16 -6 -32 -8 -35 -4 -3 3
-12 -2 -20 -12 -8 -9 -12 -11 -8 -4 7 15 -9 16 -35 2 -13 -7 -21 -7 -25 0 -4
6 -12 7 -18 3 -17 -10 -40 -10 -55 1 -9 7 -16 5 -23 -5 -7 -11 -9 -11 -9 0 0
11 -3 11 -17 0 -9 -8 -14 -9 -10 -2 4 7 0 13 -10 15 -10 3 20 5 67 6 114 1
178 12 280 44 329 105 576 386 641 728 20 107 15 281 -11 385 -24 98 -77 220
-132 306 -34 53 -144 180 -163 188 -18 8 -32 25 -32 38 0 7 11 1 25 -12 14
-14 29 -25 35 -25z m-1263 26 c0 -2 -8 -10 -17 -17 -16 -13 -17 -12 -4 4 13
16 21 21 21 13z m-4363 -21 c0 -8 -4 -12 -9 -9 -5 3 -6 10 -3 15 9 13 12 11
12 -6z m5734 -42 c13 -16 12 -17 -3 -4 -10 7 -18 15 -18 17 0 8 8 3 21 -13z
m-4183 -50 c15 -15 26 -31 24 -35 -1 -5 5 -11 13 -14 8 -4 15 -12 15 -18 0 -7
10 -23 23 -36 12 -14 21 -27 20 -30 -5 -10 9 -40 18 -40 6 0 8 -4 4 -9 -3 -5
1 -15 8 -23 8 -7 12 -19 9 -27 -3 -8 0 -11 6 -7 6 4 8 -2 5 -14 -3 -12 0 -20
7 -20 6 0 10 -6 7 -12 -2 -7 2 -31 10 -53 13 -35 22 -79 25 -122 1 -7 5 -13 9
-13 4 0 4 -12 1 -27 -4 -16 -5 -48 -2 -73 3 -25 2 -62 -1 -82 -4 -22 -2 -41 5
-48 8 -8 7 -10 -5 -5 -8 3 -27 1 -41 -4 -18 -7 -29 -6 -37 2 -6 6 -11 7 -11 1
0 -5 -55 -8 -136 -7 -100 2 -133 0 -128 -9 5 -7 3 -8 -7 -2 -21 13 -92 14
-108 1 -12 -9 -13 -9 -7 1 5 8 0 12 -13 12 -12 0 -21 -6 -22 -12 0 -10 -2 -10
-6 0 -2 6 -9 12 -14 12 -6 0 -7 -6 -3 -12 5 -8 0 -7 -11 2 -11 9 -16 10 -11 3
4 -7 2 -13 -3 -13 -6 0 -11 5 -11 11 0 8 -4 9 -13 0 -8 -6 -16 -8 -20 -5 -9 9
-137 10 -137 1 0 -5 -4 -5 -10 -2 -18 11 -51 14 -45 4 7 -11 -2 -11 -30 0 -11
5 -25 4 -32 -1 -7 -5 -14 -5 -17 1 -8 13 -37 3 -54 -18 -11 -14 -11 -14 -6 2
5 13 1 17 -16 17 -13 0 -19 -4 -14 -11 4 -8 1 -8 -12 -2 -11 6 -34 9 -52 8
-18 0 -36 3 -38 7 -3 4 0 8 7 8 6 0 19 8 28 18 9 9 31 30 49 45 19 15 30 27
25 27 -4 0 10 12 32 25 22 14 37 25 33 25 -5 0 1 9 12 20 11 11 25 20 31 20 5
0 7 5 4 10 -3 6 0 10 8 10 16 0 69 57 59 63 -4 2 -1 2 5 1 15 -4 89 65 85 78
-1 5 2 7 7 4 5 -4 13 0 18 8 4 8 11 15 15 16 7 1 70 56 139 120 21 19 45 41
54 48 8 7 13 17 10 21 -2 5 3 8 12 7 9 0 18 5 21 13 3 9 0 11 -8 6 -8 -5 -11
-4 -6 3 3 6 16 9 27 7 17 -3 20 0 16 15 -3 11 0 23 5 27 7 3 8 1 4 -5 -15 -25
16 -10 49 22 18 19 36 32 38 29 3 -2 8 5 12 16 3 12 10 19 15 16 4 -3 10 2 14
10 8 21 13 19 44 -12z m1085 12 c4 -8 3 -16 -1 -19 -4 -3 -9 4 -9 15 -2 23 3
25 10 4z m1117 9 c0 -8 -19 -13 -24 -6 -3 5 1 9 9 9 8 0 15 -2 15 -3z m-2030
-124 c0 -5 -5 -10 -11 -10 -5 0 -7 5 -4 10 3 6 8 10 11 10 2 0 4 -4 4 -10z
m4240 -20 c0 -5 -2 -10 -4 -10 -3 0 -8 5 -11 10 -3 6 -1 10 4 10 6 0 11 -4 11
-10z m-4200 -74 c0 -3 -4 -8 -10 -11 -5 -3 -10 -1 -10 4 0 6 5 11 10 11 6 0
10 -2 10 -4z m4260 -26 c0 -5 -4 -10 -10 -10 -5 0 -10 5 -10 10 0 6 5 10 10
10 6 0 10 -4 10 -10z m-60 -120 c0 -5 -2 -10 -4 -10 -3 0 -8 5 -11 10 -3 6 -1
10 4 10 6 0 11 -4 11 -10z m-3229 -23 c-10 -9 -11 -8 -5 6 3 10 9 15 12 12 3
-3 0 -11 -7 -18z m364 -147 c-3 -5 -12 -10 -18 -10 -7 0 -6 4 3 10 19 12 23
12 15 0z m1895 -4 c0 -2 -8 -10 -17 -17 -16 -13 -17 -12 -4 4 13 16 21 21 21
13z m995 -6 c-3 -5 -12 -10 -18 -10 -7 0 -6 4 3 10 19 12 23 12 15 0z m-1005
-40 c0 -5 -5 -10 -11 -10 -5 0 -7 5 -4 10 3 6 8 10 11 10 2 0 4 -4 4 -10z
m-2027 -15 c-3 -9 -8 -14 -10 -11 -3 3 -2 9 2 15 9 16 15 13 8 -4z m-1092 -68
c-6 -8 -9 -16 -6 -19 3 -2 -2 -5 -10 -5 -13 0 -13 3 2 19 19 21 31 25 14 5z
m-124 -82 c0 -8 -4 -12 -9 -9 -5 3 -6 10 -3 15 9 13 12 11 12 -6z m1160 0 c0
-8 -4 -12 -9 -9 -5 3 -6 10 -3 15 9 13 12 11 12 -6z m-2227 -31 c0 -8 -19 -13
-24 -6 -3 5 1 9 9 9 8 0 15 -2 15 -3z m1090 -38 c0 -2 -7 -7 -16 -10 -8 -3
-12 -2 -9 4 6 10 25 14 25 6z m4244 -24 c3 -5 -1 -9 -9 -9 -8 0 -12 4 -9 9 3
4 7 8 9 8 2 0 6 -4 9 -8z m-4620 -40 c3 -5 -1 -9 -9 -9 -8 0 -12 4 -9 9 3 4 7
8 9 8 2 0 6 -4 9 -8z m445 -6 c9 -11 9 -16 0 -22 -7 -4 -9 -3 -5 4 3 6 -2 15
-11 21 -10 6 -13 11 -7 11 6 0 17 -6 23 -14z m2165 -134 c3 -5 -1 -9 -9 -9 -8
0 -12 4 -9 9 3 4 7 8 9 8 2 0 6 -4 9 -8z m2000 -40 c3 -5 -1 -9 -9 -9 -8 0
-12 4 -9 9 3 4 7 8 9 8 2 0 6 -4 9 -8z m-4254 -52 c0 -5 -2 -10 -4 -10 -3 0
-8 5 -11 10 -3 6 -1 10 4 10 6 0 11 -4 11 -10z m-1576 -228 c3 -5 -1 -9 -9 -9
-8 0 -12 4 -9 9 3 4 7 8 9 8 2 0 6 -4 9 -8z m4020 -24 c-3 -4 -9 -8 -15 -8 -5
0 -9 4 -9 8 0 5 7 9 15 9 8 0 12 -4 9 -9z m-4151 -23 c-3 -9 -8 -14 -10 -11
-3 3 -2 9 2 15 9 16 15 13 8 -4z m45 -40 c-3 -3 -9 2 -12 12 -6 14 -5 15 5 6
7 -7 10 -15 7 -18z m110 -40 c-3 -3 -9 2 -12 12 -6 14 -5 15 5 6 7 -7 10 -15
7 -18z m4132 -29 c0 -3 -4 -8 -10 -11 -5 -3 -10 -1 -10 4 0 6 5 11 10 11 6 0
10 -2 10 -4z m151 -39 c-10 -9 -11 -8 -5 6 3 10 9 15 12 12 3 -3 0 -11 -7 -18z
m294 -47 c-3 -5 -12 -10 -18 -10 -7 0 -6 4 3 10 19 12 23 12 15 0z m62 4 c-3
-3 -12 -4 -19 -1 -8 3 -5 6 6 6 11 1 17 -2 13 -5z m60 -10 c-3 -3 -12 -4 -19
-1 -8 3 -5 6 6 6 11 1 17 -2 13 -5z m303 -8 c0 -2 -8 -10 -17 -17 -16 -13 -17
-12 -4 4 13 16 21 21 21 13z m340 -2 c0 -8 -19 -13 -24 -6 -3 5 1 9 9 9 8 0
15 -2 15 -3z m-770 -60 c0 -2 -9 0 -20 6 -11 6 -20 13 -20 16 0 2 9 0 20 -6
11 -6 20 -13 20 -16z m515 -33 c3 -5 2 -12 -3 -15 -5 -3 -9 1 -9 9 0 17 3 19
12 6z m-455 -27 c0 -8 -19 -13 -24 -6 -3 5 1 9 9 9 8 0 15 -2 15 -3z"/>
</g>
</svg>
